
<svg xmlns="http://www.w3.org/2000/svg" version="1.1" xmlns:xlink="http://www.w3.org/1999/xlink" preserveAspectRatio="none" x="0px" y="0px" width="512px" height="512px" viewBox="0 0 512 512">
<defs>
<linearGradient id="Gradient_1" gradientUnits="userSpaceOnUse" x1="33.387499999999996" y1="2.7125000000000004" x2="27.912499999999998" y2="31.987500000000004" spreadMethod="pad">
<stop  offset="0%" stop-color="#A2D6FD"/>

<stop  offset="100%" stop-color="#3688DC"/>
</linearGradient>

<linearGradient id="Gradient_2" gradientUnits="userSpaceOnUse" x1="49.887499999999996" y1="6.2875" x2="44.7125" y2="34.8125" spreadMethod="pad">
<stop  offset="0%" stop-color="#A2D6FD"/>

<stop  offset="100%" stop-color="#3688DC"/>
</linearGradient>

<g id="icons_Kinz_Post_0_Layer4_0_FILL">
<path fill="#00003C" fill-opacity="0.2980392156862745" stroke="none" d="
M 342.05 42.75
L 341.5 42.75 115.95 23.25 113.65 23.25
Q 108.95 23.25 101.65 24.75 75.4 29.65 58.5 43.65 37.8 60.2 25.8 80 11.8 104.15 5.7 128 -1 155.95 0.15 182.4
L 13.55 433.75
Q 14.15 441.3 18.8 447.15 23.8 452.95 31.05 455
L 49.75 459.65
Q 52.35 460.5 55.6 460.5 61.7 460.5 66.65 457.6
L 83 448.85
Q 88.85 445.65 92.35 439.85 95.85 433.75 95.25 427.05
L 94.95 418.6 203.2 448 204.05 484.35
Q 204.05 491.95 209.05 498.35 214 504.45 221.6 506.2
L 240.25 511.15 246.1 512
Q 251.35 512 257.15 509.1
L 273.5 500.05
Q 286.35 493.4 285.75 479.4
L 285.2 441 337.1 414.55 337.1 421.55
Q 337.1 429.65 342.05 435.8 347 441.9 354.6 443.95
L 373.3 448.85
Q 375.05 449.45 379.1 449.45 384.95 449.45 390.2 446.85
L 406.55 437.8
Q 418.8 431.15 418.8 417.45
L 419.95 169.6
Q 420.55 143.15 414.1 119 408 95.15 396.05 77.4 382.6 57.9 363.05 48.6 352.55 43.95 342.05 42.75 Z"/>
</g>

<g id="icons_Kinz_Post_0_Layer3_0_FILL">
<path fill="#000000" stroke="none" d="
M 342.05 19.5
L 341.5 19.5 115.95 0 113.65 0
Q 108.95 0 101.65 1.45 75.4 6.4 58.5 20.35 37.8 36.95 25.8 56.75 11.8 80.85 5.7 104.75 -1 132.65 0.15 159.15
L 13.55 410.45
Q 14.15 418.05 18.8 423.85 23.8 429.65 31.05 431.7
L 49.75 436.35
Q 52.35 437.25 55.6 437.25 61.7 437.25 66.65 434.35
L 83 425.6
Q 88.85 422.4 92.35 416.6 95.85 410.45 95.25 403.8
L 94.95 395.35 203.2 424.75 204.05 461.1
Q 204.05 468.65 209.05 475.05 214 481.15 221.6 482.9
L 240.25 487.85 246.1 488.75
Q 251.35 488.75 257.15 485.8
L 273.5 476.8
Q 286.35 470.1 285.75 456.15
L 285.2 417.75 337.1 391.25 337.1 398.25
Q 337.1 406.4 342.05 412.5 347 418.6 354.6 420.65
L 373.3 425.6
Q 375.05 426.2 379.1 426.2 384.95 426.2 390.2 423.55
L 406.55 414.55
Q 418.8 407.85 418.8 394.2
L 419.95 146.35
Q 420.55 119.85 414.1 95.7 408 71.85 396.05 54.1 382.6 34.6 363.05 25.3 352.55 20.65 342.05 19.5 Z"/>
</g>

<g id="icons_Kinz_Post_0_Layer2_0_FILL">
<path fill="#00003C" stroke="none" d="
M 60.55 8
Q 59.4 7.5 58.05 7.35 31.540234375 5.0490234375 21.1 4
L 18.2 4.15
Q 14.6 4.85 12.5 6.6 9.45 9.1 7.85 11.8 5.65 15.6 4.85 19 3.8 23.15 4 27.15
L 6.3 70.3 9.5 71.15 12.3 69.6 11.95 62.65 38.75 69.95 38.95 79.15 42.15 80 44.95 78.45 44.8 69.35 61.7 60.75 61.75 68.45 64.95 69.25 67.75 67.75 67.95 25.1
Q 68 21 67.1 17.45 66.2 13.9 64.55 11.55 62.75 9 60.55 8 Z"/>
</g>

<g id="icons_Kinz_Post_0_Layer2_1_FILL">
<path fill="#226CCA" stroke="none" d="
M 69.3 350.55
L 52.65 359.55 55.6 413.95 71.9 404.95 69.3 350.55 Z"/>
</g>

<g id="icons_Kinz_Post_0_Layer2_2_FILL">
<path fill="#3688DC" stroke="none" d="
M 9 61.8
L 5.8 60.95 6.3 70.3 9.5 71.15 9 61.8 Z"/>
</g>

<g id="icons_Kinz_Post_0_Layer2_3_FILL">
<path fill="#0E4EB8" stroke="none" d="
M 64.95 59.1
L 64.95 69.25 67.75 67.75 67.75 57.65 64.95 59.1 Z"/>
</g>

<g id="icons_Kinz_Post_0_Layer2_4_FILL">
<path fill="#226CCA" stroke="none" d="
M 64.95 59.1
L 61.65 58.3 61.75 68.45 64.95 69.25 64.95 59.1 Z"/>
</g>

<g id="icons_Kinz_Post_0_Layer2_5_FILL">
<path fill="#3688DC" stroke="none" d="
M 42 70.8
L 41.3 34.35 4 27.15 5.75 60.95 42 70.8 Z"/>
</g>

<g id="icons_Kinz_Post_0_Layer2_6_FILL">
<path fill="#61A7E9" stroke="none" d="
M 34 348
L 33.35 348 33.7 354.6 245.2 411.95 244.9 405.55 34 348.2 34 348 Z"/>
</g>

<g id="icons_Kinz_Post_0_Layer2_7_FILL">
<path fill="url(#Gradient_1)" stroke="none" d="
M 56.05 7.4
L 57.45 7.3
Q 31.4203125 5.037109375 21.1 4
L 18.2 4.15
Q 14.6 4.85 12.5 6.6 9.45 9.1 7.85 11.8 5.65 15.6 4.85 19 3.8 23.15 4 27.15
L 41.3 34.35
Q 41.15 29.95 42.3 25.05 43.3 20.75 45.4 16.8 47.4 13.05 49.95 10.65 52.65 8.2 55.35 7.55
L 56.05 7.4 Z"/>
</g>

<g id="icons_Kinz_Post_0_Layer2_8_FILL">
<path fill="#0E4EB8" stroke="none" d="
M 376.8 67.2
Q 366.3 52.35 353.45 46.55 338.85 40.15 323.1 43.95 307.35 47.7 291.6 61.95 276.7 75.95 265.05 97.75 252.8 120.75 246.95 145.75 240.25 174.25 241.1 199.85
L 245.2 411.95 395.15 335.4 396.6 146.05
Q 396.9 122.2 391.65 101.55 386.4 80.85 376.8 67.2 Z"/>
</g>

<g id="icons_Kinz_Post_0_Layer2_9_FILL">
<path fill="#4984D3" stroke="none" d="
M 370.05 60.5
Q 380 75.05 385.25 94.85 390.2 115.5 390.2 139.35
L 392.25 332.8 244.9 405.55 245.2 411.95 395.15 335.4 396.6 146.05
Q 396.9 122.2 391.65 101.55 386.4 80.85 376.8 67.2 371.8 60.2 365.4 54.7
L 370.05 60.5 Z"/>
</g>

<g id="icons_Kinz_Post_0_Layer2_10_FILL">
<path fill="#0E4EB8" stroke="none" d="
M 44.8 69.3
L 42 70.8 42.15 80 44.95 78.45 44.8 69.3 Z"/>
</g>

<g id="icons_Kinz_Post_0_Layer2_11_FILL">
<path fill="#3688DC" stroke="none" d="
M 38.75 69.95
L 38.95 79.15 42.15 80 42 70.8 38.75 69.95 Z"/>
</g>

<g id="icons_Kinz_Post_0_Layer2_12_FILL">
<path fill="#A2D6FD" stroke="none" d="
M 229.45 147.5
L 234.1 131.2 115.95 114.05 40.7 161.45 224.5 196.65
Q 224.8 169 229.45 147.5 Z"/>
</g>

<g id="icons_Kinz_Post_0_Layer2_13_FILL">
<path fill="#3688DC" stroke="none" d="
M 234.1 131.2
L 275.85 55 118.6 38.7 115.95 114.05 234.1 131.2 Z"/>
</g>

<g id="icons_Kinz_Post_0_Layer2_14_FILL">
<path fill="#0E4EB8" stroke="none" d="
M 234.1 131.2
L 271.15 63.4 124.7 48.3 122.1 114.9 234.1 131.2 Z"/>
</g>

<g id="icons_Kinz_Post_0_Layer2_15_FILL">
<path fill="#3688DC" stroke="none" d="
M 22.45 9.55
L 22.05 19.9 39.4 22.45 44.65 11.85 22.45 9.55 Z"/>
</g>

<g id="icons_Kinz_Post_0_Layer2_16_FILL">
<path fill="url(#Gradient_2)" stroke="none" d="
M 55.35 7.55
L 56.05 7.4 57.45 7.3 57.8 7.35 57.8 7.3 51.25 6.7
Q 48.65 7.55 46.4 9.65 43.65 12.25 41.75 15.9 39.75 19.6 38.6 24.3 37.5 29.1 37.55 33.65
L 41.3 34.35
Q 41.15 29.95 42.3 25.05 43.3 20.75 45.4 16.8 47.4 13.05 49.95 10.65 52.65 8.2 55.35 7.55 Z"/>
</g>

<g id="icons_Kinz_Post_0_Layer2_17_FILL">
<path fill="#0E4EB8" stroke="none" d="
M 10.6 13.75
Q 8.6 17.15 7.85 20.3 6.9 24.05 7.1 27.8
L 19.85 19.6 20.3 6.65
Q 17.25 7.05 14.85 9 12 11.4 10.6 13.75 Z"/>
</g>

<g id="icons_Kinz_Post_0_Layer1_0_FILL">
<path fill="#9B1626" stroke="none" d="
M 32.25 322.6
L 33.1 341.8 244.65 398.85 244.65 379.35 32.25 322.6 Z"/>

<path fill="#701121" stroke="none" d="
M 395.75 322.6
L 395.75 303.7 244.65 379.35 244.65 398.85 395.75 322.6 Z"/>

<path fill="#0E4EB8" stroke="none" d="
M 210.2 340.35
L 205.8 221.65 46.85 189.4 51.5 297.9 210.2 340.35
M 165.85 79.4
L 164.7 97.75 228.85 105.9 232.95 88.15 165.85 79.4 Z"/>

<path fill="#3688DC" stroke="none" d="
M 358.1 112.3
Q 350.55 105.9 341.2 104.15 331.55 102.1 318.75 104.75 311.45 106.45 303.85 110.55 296.25 114.9 290.45 120.45 284.6 126.55 279.65 133.8 274.1 142.25 271.45 149.8 267.95 158.55 266.2 168.15 264.45 178.9 264.75 188.2 265.35 198.4 267.4 207.15 270.3 216.45 273.8 222.25 277.9 229.55 283.15 233.6 289.55 238.85 295.1 241.15 300.65 243.5 309.1 244.35 316.1 244.65 324.85 242.9 330.7 241.45 335.65 239.15 341.2 236.8 345.85 233 351.1 229.55 355.8 224 361.05 218.2 365.1 211.8
L 359.3 204.8
Q 357.25 209.15 353.15 212.65 348.8 217 344.7 219.65 340.6 222.55 335.35 224.85
L 325.15 228.35
Q 314.95 230.4 307.05 228.35 299.2 225.75 293.95 219.65 288.7 214.1 285.45 203.95 282.55 193.75 282.25 182.4 281.95 170.75 284.6 160.6 287.8 150.1 292.75 143.15 297.45 135.85 305 130.6 312 125.4 320.75 123.65 327.75 121.9 333.9 122.75 340.3 123.65 345 127.15 350.25 131.2 353.15 137.6 356.35 144.6 356.35 154.75 356.65 160 355.8 166.4
L 353.15 176
Q 351.7 179.8 349.05 184.15 345.55 188.8 343.5 190.55
L 339.15 195.2 339.45 193.45 351.4 146.9 350.55 147.2 344.7 148.35 343.25 148.35 339.45 147.8 338.85 148.05 336.8 166.1 332.15 185.9 331.85 185.9
Q 328.95 177.75 327.75 170.45 326 162.35 325.15 153
L 321.35 155.05 316.1 156.5 312 183 309.7 191.7 309.4 191.7 302.4 156.2 302.1 156.2 297.45 158.55
Q 295.95 159.4 293.05 160
L 290.15 160.85 287.8 161.15 287.8 161.45 304.15 218.75 311.15 215.55 312.9 215 319.3 184.15 328.35 213.25 331.85 211.5 332.15 211.8
Q 336.8 210.35 341.2 208 346.45 205.1 350.8 201.6 355.2 198.1 359.55 192.85 364.55 186.45 366.85 181.55 370.35 174.25 371.8 167.25 373.3 160.85 373.3 150.1 372.7 137.6 368.9 128 364.8 118.1 358.1 112.3 Z"/>
</g>

<g id="icons_Kinz_Post_0_Layer0_0_FILL">
<path fill="#F5F5F5" stroke="none" d="
M 286.65 44.5
Q 292.45 41.3 298.3 39.25 175.8 28.5 123.25 23.25
L 120.55 23.3 120.65 23.25 110.7 23.55 106.35 24.15
Q 85.35 28.2 73.1 38.4 55.3 52.95 45.95 68.65 33.1 90.75 28.45 110.55 26.11171875 119.6197265625 24.85 128.5 24.2625 134.6375 23.65 140.75 23.059765625 149.418359375 23.5 157.95
L 29.3 256.85 25.55 158.85
Q 24.35 135.55 30.5 111.4 32.633984375 102.336328125 36.5 92.75 40.3837890625 84.10703125 45.65 75.05 55.3 59.05 73.1 44.8 85.65 34.35 106.05 30.85
L 110.45 29.95 114.8 29.65 122.95 29.95
Q 170.8 34.6 286.65 44.5
M 298.9 45.4
L 298.6 45.65
Q 302.7 45.95 306.75 46.25
L 298.9 45.4
M 202.3 326.4
L 198.8 230.7 143.4 259.2 202.3 326.4
M 55.3 202.75
L 58.8 288.6 108.1 252.8 55.3 202.75
M 127.05 240.6
L 139.9 254.25 193.85 226.6 60.25 199.55 112.75 249.6 127.05 240.6
M 133.75 257.15
L 125.3 247.55 117.15 253.65 125.3 261.55 133.75 257.15
M 137.25 262.1
L 123.25 268.2 112.2 257.15 62.6 293.25 197.35 329.6 137.25 262.1 Z"/>

<path fill="#FBFBFB" stroke="none" d="
M 337.4 42.75
L 337.4 42.45 299.2 39
Q 298.9 39 298.3 39.25 292.45 41.3 286.65 44.5 278.45 49.15 270.9 56.15 254.85 71.25 243.75 92.5 232.1 114.05 225.35 141.4 219.85 163.8 219.55 186.45 220.4 168.15 225.1 147.8 231.8 120.45 243.45 98.9 255.4 76.8 270.6 62.55 283.45 50.35 298.6 45.65
L 298.9 45.4 306.75 46.25 314.35 46.85
Q 320.2 44.5 323.1 43.95
L 327.2 43.05 335.35 42.45 337.4 42.75
M 218.95 194.9
L 218.95 188.5 48.6 156.5 40.7 161.45 218.95 194.9 Z"/>
</g>
</defs>

<g transform="matrix( 1, 0, 0, 1, 46,0) ">
<g transform="matrix( 1, 0, 0, 1, 0,0) ">
<use xlink:href="#icons_Kinz_Post_0_Layer4_0_FILL"/>
</g>

<g transform="matrix( 1, 0, 0, 1, 0,0) ">
<use xlink:href="#icons_Kinz_Post_0_Layer3_0_FILL"/>
</g>

<g transform="matrix( 5.8347320556640625, 0, 0, 5.81817626953125, 0.15,0) ">
<use xlink:href="#icons_Kinz_Post_0_Layer2_0_FILL"/>
</g>

<g transform="matrix( 1, 0, 0, 1, 0,0) ">
<use xlink:href="#icons_Kinz_Post_0_Layer2_1_FILL"/>
</g>

<g transform="matrix( 5.8347320556640625, 0, 0, 5.81817626953125, 0.15,0) ">
<use xlink:href="#icons_Kinz_Post_0_Layer2_2_FILL"/>
</g>

<g transform="matrix( 5.8347320556640625, 0, 0, 5.81817626953125, 0.15,0) ">
<use xlink:href="#icons_Kinz_Post_0_Layer2_3_FILL"/>
</g>

<g transform="matrix( 5.8347320556640625, 0, 0, 5.81817626953125, 0.15,0) ">
<use xlink:href="#icons_Kinz_Post_0_Layer2_4_FILL"/>
</g>

<g transform="matrix( 5.8347320556640625, 0, 0, 5.81817626953125, 0.15,0) ">
<use xlink:href="#icons_Kinz_Post_0_Layer2_5_FILL"/>
</g>

<g transform="matrix( 1, 0, 0, 1, 0,0) ">
<use xlink:href="#icons_Kinz_Post_0_Layer2_6_FILL"/>
</g>

<g transform="matrix( 5.8347320556640625, 0, 0, 5.81817626953125, 0.15,0) ">
<use xlink:href="#icons_Kinz_Post_0_Layer2_7_FILL"/>
</g>

<g transform="matrix( 1, 0, 0, 1, 0,0) ">
<use xlink:href="#icons_Kinz_Post_0_Layer2_8_FILL"/>
</g>

<g transform="matrix( 1, 0, 0, 1, 0,0) ">
<use xlink:href="#icons_Kinz_Post_0_Layer2_9_FILL"/>
</g>

<g transform="matrix( 5.8347320556640625, 0, 0, 5.81817626953125, 0.15,0) ">
<use xlink:href="#icons_Kinz_Post_0_Layer2_10_FILL"/>
</g>

<g transform="matrix( 5.8347320556640625, 0, 0, 5.81817626953125, 0.15,0) ">
<use xlink:href="#icons_Kinz_Post_0_Layer2_11_FILL"/>
</g>

<g transform="matrix( 1, 0, 0, 1, 0,0) ">
<use xlink:href="#icons_Kinz_Post_0_Layer2_12_FILL"/>
</g>

<g transform="matrix( 1, 0, 0, 1, 0,0) ">
<use xlink:href="#icons_Kinz_Post_0_Layer2_13_FILL"/>
</g>

<g transform="matrix( 1, 0, 0, 1, 0,0) ">
<use xlink:href="#icons_Kinz_Post_0_Layer2_14_FILL"/>
</g>

<g transform="matrix( 5.8347320556640625, 0, 0, 5.81817626953125, 0.15,0) ">
<use xlink:href="#icons_Kinz_Post_0_Layer2_15_FILL"/>
</g>

<g transform="matrix( 5.8347320556640625, 0, 0, 5.81817626953125, 0.15,0) ">
<use xlink:href="#icons_Kinz_Post_0_Layer2_16_FILL"/>
</g>

<g transform="matrix( 5.8347320556640625, 0, 0, 5.81817626953125, 0.15,0) ">
<use xlink:href="#icons_Kinz_Post_0_Layer2_17_FILL"/>
</g>

<g transform="matrix( 1, 0, 0, 1, 0,0) ">
<use xlink:href="#icons_Kinz_Post_0_Layer1_0_FILL"/>
</g>

<g transform="matrix( 1, 0, 0, 1, 0,0) ">
<use xlink:href="#icons_Kinz_Post_0_Layer0_0_FILL"/>
</g>
</g>
</svg>
