
<svg xmlns="http://www.w3.org/2000/svg" version="1.1" xmlns:xlink="http://www.w3.org/1999/xlink" preserveAspectRatio="none" x="0px" y="0px" width="512px" height="512px" viewBox="0 0 512 512">
<defs>
<linearGradient id="Gradient_1" gradientUnits="userSpaceOnUse" x1="56.05" y1="211.5625" x2="189.25" y2="260.3375" spreadMethod="pad">
<stop  offset="0%" stop-color="#4C77EF"/>

<stop  offset="18.03921568627451%" stop-color="#6490FF"/>

<stop  offset="100%" stop-color="#1641CC"/>
</linearGradient>

<linearGradient id="Gradient_2" gradientUnits="userSpaceOnUse" x1="329.85" y1="315.3625" x2="472.25" y2="327.7375" spreadMethod="pad">
<stop  offset="0%" stop-color="#1641CC"/>

<stop  offset="56.470588235294116%" stop-color="#6490FF"/>

<stop  offset="100%" stop-color="#3A69FF"/>
</linearGradient>

<linearGradient id="Gradient_3" gradientUnits="userSpaceOnUse" x1="282.45" y1="113.9625" x2="330.84999999999997" y2="145.13750000000002" spreadMethod="pad">
<stop  offset="0%" stop-color="#4C77EF"/>

<stop  offset="18.03921568627451%" stop-color="#6490FF"/>

<stop  offset="100%" stop-color="#1641CC"/>
</linearGradient>

<radialGradient id="Gradient_4" gradientUnits="userSpaceOnUse" cx="0" cy="0" r="76.92437946613545" fx="0" fy="0" gradientTransform="matrix( 0.7071880251429081, 0.7070255278944837, 0.7071880251429081, -0.7070255278944837, 141.85,55.95) " spreadMethod="pad">
<stop  offset="9.803921568627452%" stop-color="#FFFFFF"/>

<stop  offset="29.80392156862745%" stop-color="#FFFF00"/>

<stop  offset="100%" stop-color="#FFAA00"/>
</radialGradient>

<g id="Layer0_0_FILL">
<path fill="#00003C" stroke="none" d="
M 485.9 165.6
Q 457.1 131.2 407.5 117.6 387.5 112 365.1 112 356.3 79.2 321.05 66.4 311.45 64 301.85 64 280.25 64 264.25 76
L 237.05 60
Q 230.65 33.6 209.05 16.8 187.45 0 160.25 0 128.25 0 105.85 21.6 82.65 42.4 80.25 73.6 48.25 98.4 48.25 135.2
L 48.25 138.4 46.65 141.6
Q 17.85 200.8 9.05 228 -6.15 273.6 4.25 302.4 12.25 327.2 39.45 340 55.45 348 73.85 348 98.65 348 123.45 332 138.65 322.4 161.05 300.8
L 182.65 281.6
Q 217.05 292 241.85 301.6 273.05 313.6 303.45 328.8
L 312.25 366.4
Q 325.85 420 337.9 440.8 358.7 476.8 397.9 479.2
L 403.5 480
Q 452.3 480 473.9 432.8 487.5 404 501.1 317.6
L 511.5 260 511.5 239.2
Q 515.5 200 485.9 165.6 Z"/>
</g>

<g id="Layer0_1_FILL">
<path fill="url(#Gradient_1)" stroke="none" d="
M 40.25 233.6
Q 19.45 296 53.05 311.2 85.05 326.4 123.45 292 170.65 250.4 179.45 248.8
L 195.45 252
Q 218.65 258.4 253.05 272 309.05 293.6 329.9 307.2 341.1 344 355.5 404 369.9 445.6 399.5 447.2 437.1 449.6 453.1 397.6 453.1 396 480.3 253.6
L 93.05 117.6
Q 41.85 230.4 40.25 233.6 Z"/>
</g>

<g id="Layer0_2_FILL">
<path fill="url(#Gradient_2)" stroke="none" d="
M 283.45 184.8
L 253.05 272
Q 309.05 293.6 329.9 307.2 341.1 344 355.5 404 369.9 445.6 399.5 447.2 437.1 449.6 453.1 397.6 453.1 396 480.3 253.6
L 283.45 184.8 Z"/>
</g>

<g id="Layer0_3_FILL">
<path fill="url(#Gradient_3)" stroke="none" d="
M 334.7 137.6
Q 338.7 124.8 331.5 113.6 325.05 101.6 311.45 97.6 298.65 93.6 287.45 99.2 276.25 104.8 273.05 117.6 269.85 130.4 276.25 141.6 282.65 153.6 296.25 157.6 309.05 161.6 320.25 156 331.5 150.4 334.7 137.6 Z"/>
</g>

<g id="Layer0_4_FILL">
<path fill="#457AFF" stroke="none" d="
M 401.1 154.4
Q 383.5 152.8 347.5 142.4 317.05 134.4 298.65 127.2 266.65 116.8 225.05 89.6 208.25 78.4 186.65 79.2
L 167.45 82.4 177.05 204.8 338.7 261.6
Q 354.7 255.2 369.9 239.2 401.9 205.6 401.1 154.4 Z"/>
</g>

<g id="Layer0_5_FILL">
<path fill="#1641CC" stroke="none" d="
M 399.5 164
Q 359.5 153.6 327.45 166.4 295.45 178.4 289.05 206.4 282.65 233.6 305.85 261.6 329.1 288 368.3 299.2 408.3 309.6 440.3 297.6 472.3 284.8 478.7 256.8 485.1 229.6 461.9 202.4 438.7 175.2 399.5 164 Z"/>
</g>

<g id="Layer0_6_FILL">
<path fill="#6490FF" stroke="none" d="
M 399.5 148
Q 359.5 137.6 327.45 150.4 295.45 162.4 289.05 190.4 282.65 217.6 305.85 245.6 329.1 272 368.3 283.2 408.3 293.6 440.3 281.6 472.3 268.8 478.7 240.8 485.1 213.6 461.9 186.4 438.7 159.2 399.5 148 Z"/>
</g>

<g id="Layer0_7_FILL">
<path fill="#FF73FF" stroke="none" d="
M 352.3 160
Q 338.7 160 329.1 167.2 320.25 173.6 320.25 184 320.25 193.6 329.1 200.8 338.7 208 352.3 208 365.1 208 374.7 200.8 384.3 193.6 384.3 184 384.3 173.6 374.7 167.2 365.9 160 352.3 160 Z"/>
</g>

<g id="Layer0_8_FILL">
<path fill="#00FF00" stroke="none" d="
M 400.3 231.2
Q 400.3 221.6 390.7 215.2 381.9 208 368.3 208 354.7 208 345.1 215.2 336.3 221.6 336.3 231.2 336.3 241.6 345.1 248.8 354.7 256 368.3 256 381.9 256 390.7 248.8 400.3 241.6 400.3 231.2 Z"/>
</g>

<g id="Layer0_9_FILL">
<path fill="#FFAA00" stroke="none" d="
M 464.3 216
Q 464.3 205.6 454.7 199.2 445.9 192 432.3 192 418.7 192 409.1 199.2 400.3 205.6 400.3 216 400.3 225.6 409.1 232.8 418.7 240 432.3 240 445.1 240 454.7 232.8 464.3 225.6 464.3 216 Z"/>
</g>

<g id="Layer0_10_FILL">
<path fill="#1641CC" stroke="none" d="
M 216.25 192
Q 239.45 175.2 240.25 152 240.25 128.8 217.05 112 193.05 96 160.25 96 127.45 95.2 103.45 112 80.25 128 80.25 151.2 79.45 174.4 103.45 191.2 125.85 207.2 159.45 208 192.25 208 216.25 192 Z"/>
</g>

<g id="Layer0_11_FILL">
<path fill="#6490FF" stroke="none" d="
M 216.25 176
Q 239.45 159.2 240.25 136 240.25 112.8 217.05 96 193.05 80 160.25 80 127.45 79.2 103.45 96 80.25 112 80.25 135.2 79.45 158.4 103.45 175.2 125.85 191.2 159.45 192 192.25 192 216.25 176 Z"/>
</g>

<g id="Layer0_12_FILL">
<path fill="#FF7600" stroke="none" d="
M 182.65 153.6
Q 192.25 147.2 192.25 138.4
L 192.25 96 128.25 96 128.25 138.4
Q 128.25 147.2 137.05 153.6 146.65 160 159.45 160 173.05 160 182.65 153.6 Z"/>
</g>

<g id="Layer0_13_FILL">
<path fill="url(#Gradient_4)" stroke="none" d="
M 208.25 80
Q 208.25 60 193.85 45.6 180.25 32 160.25 32 140.25 32 125.85 45.6 112.25 60 112.25 80 112.25 100 125.85 113.6 140.25 128 160.25 128 180.25 128 193.85 113.6 208.25 100 208.25 80 Z"/>
</g>
</defs>

<g transform="matrix( 1, 0, 0, 1, 0,16) ">
<use xlink:href="#Layer0_0_FILL"/>
</g>

<g transform="matrix( 1, 0, 0, 1, 0,16) ">
<use xlink:href="#Layer0_1_FILL"/>
</g>

<g transform="matrix( 1, 0, 0, 1, 0,16) ">
<use xlink:href="#Layer0_2_FILL"/>
</g>

<g transform="matrix( 1, 0, 0, 1, 0,16) ">
<use xlink:href="#Layer0_3_FILL"/>
</g>

<g transform="matrix( 1, 0, 0, 1, 0,16) ">
<use xlink:href="#Layer0_4_FILL"/>
</g>

<g transform="matrix( 1, 0, 0, 1, 0,16) ">
<use xlink:href="#Layer0_5_FILL"/>
</g>

<g transform="matrix( 1, 0, 0, 1, 0,16) ">
<use xlink:href="#Layer0_6_FILL"/>
</g>

<g transform="matrix( 1, 0, 0, 1, 0,16) ">
<use xlink:href="#Layer0_7_FILL"/>
</g>

<g transform="matrix( 1, 0, 0, 1, 0,16) ">
<use xlink:href="#Layer0_8_FILL"/>
</g>

<g transform="matrix( 1, 0, 0, 1, 0,16) ">
<use xlink:href="#Layer0_9_FILL"/>
</g>

<g transform="matrix( 1, 0, 0, 1, 0,16) ">
<use xlink:href="#Layer0_10_FILL"/>
</g>

<g transform="matrix( 1, 0, 0, 1, 0,16) ">
<use xlink:href="#Layer0_11_FILL"/>
</g>

<g transform="matrix( 1, 0, 0, 1, 0,16) ">
<use xlink:href="#Layer0_12_FILL"/>
</g>

<g transform="matrix( 1, 0, 0, 1, 0,16) ">
<use xlink:href="#Layer0_13_FILL"/>
</g>
</svg>
