
<svg xmlns="http://www.w3.org/2000/svg" version="1.1" xmlns:xlink="http://www.w3.org/1999/xlink" preserveAspectRatio="none" x="0px" y="0px" width="80px" height="84px" viewBox="0 0 80 84">
<defs>
<linearGradient id="Gradient_1" gradientUnits="userSpaceOnUse" x1="16.1125" y1="36.6" x2="26.8875" y2="44.1" spreadMethod="pad">
<stop  offset="0%" stop-color="#E62E35"/>

<stop  offset="20%" stop-color="#C1272D"/>

<stop  offset="100%" stop-color="#990006"/>
</linearGradient>

<linearGradient id="Gradient_2" gradientUnits="userSpaceOnUse" x1="12.874999999999996" y1="10.624999999999996" x2="51.925" y2="45.675" spreadMethod="pad">
<stop  offset="0%" stop-color="#8CFF00"/>

<stop  offset="100%" stop-color="#529E00"/>
</linearGradient>

<linearGradient id="Gradient_3" gradientUnits="userSpaceOnUse" x1="16.05" y1="15.05" x2="16.05" y2="19.05" spreadMethod="pad">
<stop  offset="0%" stop-color="#ED1C24"/>

<stop  offset="100%" stop-color="#C1272D"/>
</linearGradient>

<linearGradient id="Gradient_4" gradientUnits="userSpaceOnUse" x1="26.05" y1="30.049999999999997" x2="26.05" y2="34.05" spreadMethod="pad">
<stop  offset="0%" stop-color="#ED1C24"/>

<stop  offset="100%" stop-color="#C1272D"/>
</linearGradient>

<linearGradient id="Gradient_5" gradientUnits="userSpaceOnUse" x1="41.05" y1="11.05" x2="41.05" y2="15.05" spreadMethod="pad">
<stop  offset="0%" stop-color="#ED1C24"/>

<stop  offset="100%" stop-color="#C1272D"/>
</linearGradient>

<g id="iconTravelMain_copy_0_Layer1_0_FILL">
<path fill="#00003C" stroke="none" d="
M 48.85 41.55
Q 47.4 41.65 46.65 42.2 46.15 41.9 45.65 41.9 45.2 41.9 44.8 42.15
L 44.4 42.4 44.05 42.35 43.5 42.35
Q 42.6 42.35 41.7 42.65 40.7 43.05 39.95 43.95 39.2 43.3 38.35 43.15
L 37.85 43.15
Q 36.95 43.15 36.4 43.5
L 36 43.45
Q 35.65 43.45 35.25 43.65 34.95 43.8 34.7 43.8
L 34.7 43.4 34.65 43.25
Q 34.5 42.3 33.75 41.7 33.05 41.1 32.05 41.1 30.75 41.1 29.95 42.05 29.2 42.9 29.35 44.15
L 29.45 44.6 29.15 44.5 28.65 44.45 28.35 44.5 28.3 43.4
Q 28.2 42.5 27.4 42.15 27.1 42 26.8 42 26.3 42 25.9 42.3 25.8 42.4 25.2 42.45
L 25 42.45
Q 24.5 42.5 24.15 42.65
L 24.05 42.65
Q 23.8 42.65 23.2 42.85 22.55 43.1 21.7 43.15
L 20.8 43.3
Q 19.8 43.55 19.05 43.55
L 18.65 43.5 18.4 43.5
Q 17.85 43.5 17.35 43.9 16.8 44.45 16.9 45.2
L 17.2 47.75
Q 17.4 48.55 18.05 48.85 18.35 49 18.7 49 19.1 49 19.4 48.85
L 19.9 54.35
Q 20 54.9 20.35 55.25 20.1 55.8 20.15 56.25
L 20.45 58.75
Q 20.6 59.5 21.3 59.9 21.6 60.05 21.95 60.05 22.35 60.05 22.65 59.9
L 23.15 65.4
Q 23.25 66.25 23.95 66.55 24.3 66.75 24.65 66.75 25.05 66.75 25.4 66.55 25.8 66.3 26.6 66.3
L 26.95 66.35 27.1 66.35
Q 27.85 66.35 28.3 65.75
L 28.55 65.2
Q 29.6 65.85 30.7 65.85
L 31.35 65.8
Q 33.2 65.5 34.25 63.95 35.25 62.4 35 60.3
L 34.95 60
Q 34.65 58.1 33.45 56.9 32.25 55.75 30.55 55.75 29.9 55.75 29.55 55.85
L 28.95 56.05 28.9 55.3 28.7 54.6 28.95 54.5 29.25 54.5
Q 29.7 54.5 30 54.35 30.3 54.15 30.9 54.15
L 31.45 54.25
Q 31.8 54.25 32 54.1
L 32.2 54.15
Q 32.75 54.15 33.1 53.8
L 34.05 53.75 34.4 53.8 35 53.7 35.2 53.7
Q 35.6 53.7 36 53.45
L 36.05 54.1
Q 37.3 58.8 37.35 63.2 37.45 64.1 38.15 64.5 38.65 64.7 38.85 64.7 39.25 64.7 39.65 64.45
L 41.2 64.2
Q 42.95 63.9 44.25 62.95 44.85 62.5 45.25 61.8 46.55 63.25 48.35 63.25
L 49.05 63.2
Q 50.95 62.95 51.95 61.4 52.95 59.8 52.65 57.6
L 52.65 57.45
Q 52.35 55.5 51.15 54.35 49.95 53.15 48.25 53.15
L 47.4 53.25
Q 48.1 52.55 48.4 51.65
L 48.7 51.7 49.65 51.6
Q 51.2 51.4 52.1 50.3 53 49.25 52.9 47.8
L 52.85 47.3
Q 52.65 46.2 51.9 45.55 52.15 45.05 52 44.55
L 51.5 42.5
Q 51.35 41.85 50.75 41.55 50.35 41.35 50.05 41.35
L 48.85 41.55 Z"/>
</g>

<g id="iconTravelMain_copy_0_Layer1_1_MEMBER_0_FILL">
<path fill="#00003C" stroke="none" d="
M 59.65 48.95
L 61.2 46.4
Q 63.6 42.8 62.8 38.45
L 57.5 9.55
Q 56.7 5.05 52.95 2.3 49.2 -0.45 44.65 0.05
L 11.15 4.85
Q 8.65 5.25 6.55 6.6 4.5 7.95 3.25 10.1
L 1.55 12.8
Q -0.65 16.4 0.15 20.5
L 5.45 49.4
Q 6.3 53.9 10 56.65 13.75 59.45 18.3 58.9
L 51.8 54.1
Q 54.25 53.75 56.35 52.4 58.35 51.05 59.65 48.95 Z"/>
</g>

<g id="iconTravelMain_copy_0_Layer1_1_MEMBER_1_FILL">
<path fill="url(#Gradient_1)" stroke="none" d="
M 57.95 47.9
L 59.7 45.1 5 11.05 3.25 13.85
Q 1.5 16.75 2.15 20.15
L 7.45 49.05
Q 8.15 52.85 11.35 55.15 14.5 57.45 18.35 56.9
L 51.5 52.1
Q 55.75 51.5 57.95 47.9 Z"/>
</g>

<g id="iconTravelMain_copy_0_Layer1_1_MEMBER_2_FILL">
<path fill="#FFFFFF" stroke="none" d="
M 53.25 49.3
Q 57.1 48.75 59.3 45.65 61.5 42.6 60.8 38.8
L 55.5 9.9
Q 54.85 6.1 51.65 3.8 48.45 1.55 44.6 2.05
L 11.45 6.85
Q 7.6 7.4 5.4 10.45 3.15 13.5 3.85 17.3
L 9.15 46.2
Q 9.85 50 13.05 52.3 16.3 54.6 20.1 54.05
L 53.25 49.3 Z"/>
</g>

<g id="iconTravelMain_copy_0_Layer1_1_MEMBER_3_FILL">
<path fill="url(#Gradient_2)" stroke="none" d="
M 52.6 45.45
Q 54.75 45.15 56.1 43.35 57.35 41.65 56.95 39.45
L 51.65 10.55
Q 51.3 8.6 49.7 7.3 48.1 5.95 46.1 5.95 45.55 5.95 45.3 6
L 12.15 10.75
Q 9.95 11.05 8.65 12.85 7.4 14.6 7.8 16.75
L 13.1 45.65
Q 13.5 47.65 15.1 48.95 16.65 50.25 18.7 50.25
L 19.45 50.2 52.6 45.45 Z"/>
</g>

<g id="iconTravelMain_copy_0_Layer1_1_MEMBER_4_FILL">
<path fill="#0086FF" stroke="none" d="
M 48.95 28.35
Q 51.8 25.75 54.25 24.95
L 53.15 19.05
Q 48.5 21 46.2 22.45 42.25 24.9 37.25 29.7 33.65 33.15 29 40.3 24.75 46.85 21.05 49.95
L 37.75 47.55
Q 38.55 44.55 40.2 41 41.75 37.55 43.55 34.75 45.9 31.05 48.95 28.35 Z"/>
</g>

<g id="iconTravelMain_copy_0_Layer1_1_MEMBER_5_FILL">
<path fill="#FFFF00" stroke="none" d="
M 28.85 37.9
L 27.15 38.15 27.45 40.05 28.85 37.9
M 20.75 48.3
Q 22.25 46.95 23.5 45.5
L 23.05 43.25 19.9 43.7 20.75 48.3
M 25.9 31.25
L 26.25 33.25 29.9 32.7 29.55 30.7 25.9 31.25
M 35.05 29.9
L 30.5 30.55 30.9 32.55 32.95 32.25 35.05 29.9
M 17.25 27.4
L 20.05 27 19.45 23.75
Q 17.4 24.95 17.25 27.4
M 17.9 32.4
L 18.25 34.4 21.3 33.95 20.95 31.95 17.9 32.4
M 19.15 39.35
L 19.75 42.7 22.85 42.25 22.25 38.9 19.15 39.35
M 14.6 45.4
Q 14.75 46.3 15.5 47.25
L 12.95 33.1 12.35 33.15 14.6 45.4
M 14.5 21.5
Q 16.1 19.7 18.5 18.7
L 18.25 17.4 9.7 18.65 11.45 28.25 12.25 28.15
Q 12.15 24.2 14.5 21.5
M 17.2 11.55
L 12.35 12.25
Q 10.75 12.5 9.9 13.7 9 14.9 9.3 16.5
L 9.5 17.65 18.1 16.45 17.2 11.55
M 34.5 21.05
L 29.9 21.7 30.6 25.5 35.2 24.85 34.5 21.05
M 32.45 9.35
L 27.9 10 29.05 16.8 33.6 16.1 32.45 9.35
M 28.9 21.85
L 24.3 22.55 25 26.3 29.6 25.65 28.9 21.85
M 26.9 10.15
L 22.25 10.85 23.4 17.6 28.1 16.9 26.9 10.15
M 53.3 43.7
Q 54.35 43.3 54.85 42.5 55.75 41.3 55.5 39.7
L 55.3 38.7 52.4 39.1 53.3 43.7
M 47.55 40.65
L 41.65 41.5
Q 40.45 44.15 39.95 45.75
L 48.25 44.55 47.55 40.65
M 44.95 35.45
L 44.85 35.6
Q 43.5 37.65 42.15 40.45
L 47.35 39.7 46.55 35.25 44.95 35.45
M 53.55 29.2
L 53.2 27.15
Q 51.95 27.9 50.55 29.05
L 50.6 29.6 53.55 29.2
M 54.45 34.1
L 51.5 34.5 52.2 38.1 55.1 37.7 54.45 34.1
M 42.75 14.8
L 41.55 8.05 37.35 8.65 38.55 15.4 42.75 14.8
M 48.6 18.75
L 48.75 19.45
Q 50 18.8 51.55 18.2
L 51.3 16.8 51.1 17.05
Q 50.1 18.05 48.6 18.75
M 44.1 22.1
L 43.65 19.75 39.45 20.35 40.3 25.05
Q 42.1 23.45 44.1 22.1
M 46.55 7.9
L 46.55 7.85 47.6 13.45
Q 48.05 13 48.6 11.65
L 49.2 10.45
Q 49.35 10.1 49.8 9.75 48.75 7.75 46.5 7.5
L 46.55 7.9 Z"/>
</g>

<g id="iconTravelMain_copy_0_Layer1_1_MEMBER_7_FILL">
<path fill="#007F00" stroke="none" d="
M 49.9 6.15
Q 47.7 4.6 45.1 4.95
L 11.95 9.7
Q 9.35 10.1 7.8 12.2 6.3 14.3 6.75 16.9
L 12.05 45.8
Q 12.55 48.4 14.75 49.95 16.95 51.55 19.55 51.15
L 52.7 46.4
Q 55.35 46.05 56.85 43.95 58.4 41.8 57.9 39.2
L 52.6 10.3
Q 52.1 7.7 49.9 6.15
M 49.65 7.25
Q 51.25 8.55 51.6 10.5
L 56.9 39.4
Q 57.3 41.6 56.05 43.3 54.7 45.1 52.55 45.4
L 19.4 50.15 18.65 50.2
Q 16.6 50.2 15.05 48.9 13.45 47.6 13.05 45.6
L 7.75 16.7
Q 7.35 14.55 8.6 12.8 9.9 11 12.1 10.7
L 45.25 5.95
Q 45.5 5.9 46.05 5.9 48.05 5.9 49.65 7.25 Z"/>
</g>

<g id="iconTravelMain_copy_0_Layer1_1_MEMBER_8_FILL">
<path fill="#660004" stroke="none" d="
M 19.05 17
Q 19.05 15.75 18.15 14.9 17.3 14.05 16.05 14.05 14.8 14.05 13.9 14.9 13.05 15.75 13.05 17 13.05 18.3 13.9 19.15 14.8 20.05 16.05 20.05 17.3 20.05 18.15 19.15 19.05 18.25 19.05 17
M 17.45 15.6
Q 18.05 16.2 18.05 17 18.05 17.85 17.45 18.45 16.9 19.05 16.05 19.05 15.2 19.05 14.6 18.45 14.05 17.85 14.05 17 14.05 16.15 14.6 15.6 15.2 15.05 16.05 15.05 16.9 15.05 17.45 15.6 Z"/>

<path fill="url(#Gradient_3)" stroke="none" d="
M 18.05 17
Q 18.05 16.2 17.45 15.6 16.9 15.05 16.05 15.05 15.2 15.05 14.6 15.6 14.05 16.15 14.05 17 14.05 17.85 14.6 18.45 15.2 19.05 16.05 19.05 16.9 19.05 17.45 18.45 18.05 17.85 18.05 17 Z"/>
</g>

<g id="iconTravelMain_copy_0_Layer1_1_MEMBER_9_FILL">
<path fill="#660004" stroke="none" d="
M 28.15 29.9
Q 27.3 29.05 26.05 29.05 24.8 29.05 23.9 29.9 23.05 30.8 23.05 32.05 23.05 33.3 23.9 34.15 24.8 35.05 26.05 35.05 27.3 35.05 28.15 34.15 29.05 33.3 29.05 32.05 29.05 30.8 28.15 29.9
M 26.05 30.05
Q 26.9 30.05 27.45 30.6 28.05 31.2 28.05 32.05 28.05 32.9 27.45 33.45 26.9 34.05 26.05 34.05 25.2 34.05 24.6 33.45 24.05 32.9 24.05 32.05 24.05 31.2 24.6 30.6 25.2 30.05 26.05 30.05 Z"/>

<path fill="url(#Gradient_4)" stroke="none" d="
M 27.45 30.6
Q 26.9 30.05 26.05 30.05 25.2 30.05 24.6 30.6 24.05 31.2 24.05 32.05 24.05 32.9 24.6 33.45 25.2 34.05 26.05 34.05 26.9 34.05 27.45 33.45 28.05 32.9 28.05 32.05 28.05 31.2 27.45 30.6 Z"/>
</g>

<g id="iconTravelMain_copy_0_Layer1_1_MEMBER_10_FILL">
<path fill="#660004" stroke="none" d="
M 43.15 10.9
Q 42.3 10.05 41.05 10.05 39.8 10.05 38.9 10.9 38.05 11.8 38.05 13.05 38.05 14.3 38.9 15.15 39.8 16.05 41.05 16.05 42.3 16.05 43.15 15.15 44.05 14.3 44.05 13.05 44.05 11.8 43.15 10.9
M 42.45 11.6
Q 43.05 12.2 43.05 13.05 43.05 13.9 42.45 14.45 41.9 15.05 41.05 15.05 40.2 15.05 39.6 14.45 39.05 13.9 39.05 13.05 39.05 12.2 39.6 11.6 40.2 11.05 41.05 11.05 41.9 11.05 42.45 11.6 Z"/>

<path fill="url(#Gradient_5)" stroke="none" d="
M 43.05 13.05
Q 43.05 12.2 42.45 11.6 41.9 11.05 41.05 11.05 40.2 11.05 39.6 11.6 39.05 12.2 39.05 13.05 39.05 13.9 39.6 14.45 40.2 15.05 41.05 15.05 41.9 15.05 42.45 14.45 43.05 13.9 43.05 13.05 Z"/>
</g>

<g id="iconTravelMain_copy_0_Layer0_0_FILL">
<path fill="#00003C" stroke="none" d="
M 50.3 40.05
L 49.1 40.25
Q 47.85 40.25 46.9 40.9 46.4 40.6 45.9 40.6 45.35 40.6 45.05 40.85
L 44.65 41.1 43.7 41
Q 42.7 41 41.95 41.35 40.85 41.7 40.2 42.6 39.55 42 38.55 41.85
L 38.1 41.8
Q 37.3 41.8 36.6 42.2
L 36.25 42.15
Q 35.75 42.15 35.5 42.35
L 34.95 42.45 34.95 42.05 34.9 41.95
Q 34.75 41 34 40.4 33.3 39.8 32.3 39.8 31 39.8 30.2 40.7 29.45 41.6 29.6 42.85
L 29.7 43.25 28.9 43.15 28.6 43.15 28.55 42.05
Q 28.5 41.2 27.65 40.8 27.45 40.7 27.05 40.7 26.55 40.7 26.15 41
L 25.2 41.15
Q 24.8 41.15 24.4 41.35
L 24.25 41.3
Q 23.85 41.3 23.45 41.55 23.25 41.6 21.95 41.85
L 21.05 42
Q 19.85 42.2 19.3 42.2
L 18.9 42.2 18.65 42.15
Q 18 42.15 17.6 42.6 17.05 43.15 17.15 43.9
L 17.45 46.4
Q 17.6 47.15 18.3 47.55 18.6 47.7 18.95 47.7 19.3 47.7 19.65 47.5
L 20.05 50.6 20.15 53
Q 20.25 53.6 20.6 53.95 20.35 54.35 20.4 54.9
L 20.7 57.45
Q 20.85 58.25 21.55 58.55 21.85 58.7 22.2 58.7 22.55 58.7 22.9 58.55
L 23.4 64.05
Q 23.5 64.85 24.2 65.25 24.5 65.4 24.9 65.4 25.3 65.4 25.6 65.25 26.1 65 26.85 65
L 27.35 65
Q 28.1 65 28.5 64.45 28.75 64.15 28.8 63.9 29.7 64.5 30.95 64.5
L 31.6 64.45
Q 33.45 64.2 34.5 62.65 35.5 61.1 35.25 58.95
L 35.2 58.65
Q 34.9 56.75 33.7 55.55 32.5 54.4 30.8 54.4
L 29.8 54.5 29.2 54.7 29.15 54 28.95 53.25 29.2 53.15 29.5 53.2
Q 29.9 53.2 30.25 53
L 31.15 52.8
Q 31.35 52.9 31.7 52.9
L 32.25 52.8 32.45 52.8
Q 33 52.8 33.35 52.5 33.55 52.4 33.95 52.4
L 34.65 52.5
Q 34.95 52.5 35.25 52.35
L 35.4 52.4
Q 35.842578125 52.4 36.2 52.15 36.1609375 52.521875 36.3 52.8 37.55 57.4 37.6 61.9 37.6 62.7 38.4 63.2 38.7 63.35 39.1 63.35 39.6 63.35 39.9 63.1
L 41.45 62.9
Q 43.35 62.5 44.5 61.65 45.1 61.1 45.5 60.5 46.8 61.95 48.6 61.95
L 49.25 61.9
Q 51.15 61.6 52.2 60.05 53.2 58.5 52.9 56.3
L 52.9 56.15
Q 52.6 54.15 51.4 53 50.2 51.85 48.45 51.85 47.9 51.85 47.6 51.9 48.35 51.2 48.6 50.35
L 48.9 50.35
Q 49.55 50.35 49.9 50.3 51.45 50.1 52.35 49 53.25 47.95 53.15 46.45
L 53.1 46
Q 52.9 44.95 52.15 44.2 52.4 43.7 52.25 43.25
L 51.75 41.2
Q 51.6 40.55 51 40.2 50.7 40.05 50.3 40.05
M 45.35 53.1
L 45.25 53.2 45.2 53.1 45.35 53.1 Z"/>
</g>

<g id="iconTravelMain_copy_0_Layer0_1_FILL">
<path fill="#FFFFFF" stroke="none" d="
M 51.25 58.5
Q 51.8 57.45 51.6 56 51.4 54.45 50.45 53.6 49.45 52.65 47.95 52.95 46.65 53.25 46.1 54.4 45.65 55.45 45.85 56.8 46.05 58.25 46.9 59.15 47.85 60.15 49.25 59.95 50.65 59.75 51.25 58.5
M 49.75 57.3
Q 49.35 57.9 48.7 57.85 47.55 57.7 47.45 56.25 47.4 54.85 48.55 54.8 49.75 54.75 49.95 56.1 50.05 56.75 49.75 57.3
M 27.95 54.65
L 27.85 53.6
Q 27.8 53.4 27.65 53.45 27.45 53.55 27.3 53.55 26.6 53.8 25.6 53.9 22.85 54.4 22.1 54.25 22.4 56.65 22.4 56.75 22.55 56.7 23.3 56.35 24.05 56.05 24.25 56.2
L 25 61
Q 25.1 61.85 25.1 63.45 26.1 62.95 27.55 63.05 27.1 61.75 26.4 57.45
L 26.3 56.45
Q 26.25 56.1 26.3 56 26.3 55.9 26.65 55.85 27.3 55.7 28.2 55.9 28.05 55.6 27.95 54.65
M 33.95 58.55
Q 33.7 57 32.8 56.15 31.8 55.25 30.3 55.55 29 55.8 28.45 57 28 58 28.2 59.4 28.4 60.85 29.25 61.75 30.2 62.75 31.6 62.55 33 62.35 33.6 61.1 34.15 60 33.95 58.55
M 32.3 58.65
Q 32.4 59.35 32.05 59.9 31.65 60.45 31 60.4 30.45 60.35 30.1 59.85 29.8 59.35 29.8 58.8 29.75 57.45 30.9 57.4 32.1 57.35 32.3 58.65
M 40.25 51.7
Q 38.5 52 37.95 51.95 39.25 56.9 39.3 61.4 39.85 61.05 41.35 60.95 42.95 60.65 43.75 60 45.35 58.7 44.95 55.75 44.5 52.8 42.5 51.85 41.65 51.5 40.25 51.7
M 40.5 53.95
Q 40.6 53.85 41 53.8 41.6 53.8 41.9 53.95 42.6 54.25 42.85 55.85 43.3 58.5 41.2 58.85 40.6 55.25 40.5 54.45 40.45 54.05 40.5 53.95
M 31.7 44.05
Q 31.6 44.1 32.1 45.7
L 32.45 47.45
Q 32.5 48 32.65 50.85 32.95 50.55 33.7 50.5 34.4 50.45 34.85 50.55 34.25 48.35 34.1 47.2 33.8 45 33.8 43.8 33.75 43.55 33.5 43.65 33.2 43.8 33.05 43.85 32.45 44.05 31.7 44.05
M 33.65 41.8
Q 33.5 40.7 32.3 40.85 31.1 41.05 31.3 42.15 31.45 43.3 32.65 43.15 33.8 42.95 33.65 41.8
M 38.55 42.9
Q 37.9 42.8 37.35 43.2 36.8 43.55 36.65 44.25
L 36.45 43.2
Q 35.85 43.55 34.65 43.55 35.15 45.15 35.4 47 35.55 48.15 35.6 50.45 36.55 49.8 37.85 50.1 37.25 48.15 37.1 47 37 46.35 37.2 45.75 37.45 45 38.1 45.35 38.5 45.6 38.7 46.5 38.8 46.95 38.85 47.8
L 38.85 49.95
Q 39.25 49.7 39.95 49.6 40.7 49.45 41.05 49.65 40.7 48.3 40.2 44.85 40.1 44.15 39.7 43.6 39.25 43 38.55 42.9
M 26.45 42.05
Q 25.85 42.15 25.6 42.2 25.15 42.25 25.15 42.35 25.15 42.45 25.3 42.95
L 25.85 45.95
Q 26.45 49.3 26.45 51.75 26.8 51.5 27.5 51.4 28.2 51.35 28.65 51.45 28.15 49.85 27.95 48.7 27.6 46.55 28.7 46.65 29.55 46.7 29.7 48.7 29.75 49.75 29.7 51.3 30.05 51.05 30.75 50.9 31.5 50.8 31.9 50.95 31.4 49.4 31.3 48.6 31.15 47 31.05 46.15 30.75 44.4 29.35 44.2 28 44.05 27.5 45.35 27.35 42.95 27.25 41.75 26.95 41.95 26.45 42.05
M 18.85 43.2
L 19.15 45.75
Q 20.65 44.85 21 45.15
L 21.75 50
Q 21.85 50.8 21.85 52.45 22.9 51.85 24.3 52.05 23.85 50.75 23.15 46.45
L 23.05 45.4
Q 23 45.05 23.05 44.95 23.05 44.85 23.4 44.8 24.3 44.7 24.95 44.9 24.8 44.5 24.7 43.6
L 24.6 42.55
Q 24.55 42.35 24.4 42.4 24.2 42.5 24.05 42.55
L 22.35 42.9
Q 21.2 43.1 20.6 43.2 19.55 43.35 18.85 43.2
M 50.5 41.1
Q 50.2 41.2 49.2 41.3 48.35 41.35 47.9 41.7 47.25 42.2 47.2 43.15 47.15 44.15 47.75 44.75 48.3 45.3 49.7 45.75 50.05 45.9 49.85 46.25 49.65 46.5 49.35 46.55 48.5 46.7 47.65 46.2
L 47.7 47.25
Q 47.7 47.45 47.6 47.8 47.6 48.1 47.9 48.2 48.9 48.5 49.85 48.35 50.9 48.2 51.4 47.55 51.95 46.85 51.8 45.85 51.7 45.1 51.15 44.7 50.85 44.45 49.9 44.05 49.4 43.9 49.15 43.6 48.85 43.2 49.45 42.95 49.8 42.8 50.25 42.9 50.5 43 51 43.15
L 50.5 41.1
M 47.1 42.25
Q 46.15 41.6 46.05 41.65
L 45.4 42.1
Q 45.15 42.25 44.85 42.2 44.55 42.15 44.3 42.1 43.5 41.95 42.65 42.3 40.85 42.95 41.2 44.75 41.55 46.5 43.45 46.6 43.25 46.9 42.9 46.9 42.5 46.85 42.25 46.8 41.95 46.75 41.7 47.2 41.55 47.4 41.35 47.85 41.9 47.75 42.5 47.85 41 49.65 42.25 50.75 43.4 51.8 45.65 51.05 46.55 50.75 47.05 50.1 47.65 49.35 47.4 48.45 47.05 47.15 44.25 47 44.4 46.65 44.65 46.5 45.05 46.4 45.25 46.25 45.9 45.85 46.2 45.2 46.8 43.9 45.85 42.8 46.2 42.6 47.1 42.25
M 44.7 44.35
Q 44.8 45.35 43.9 45.45 43 45.6 42.85 44.6 42.75 43.8 43.65 43.65 44.55 43.55 44.7 44.35
M 43.4 49
Q 43.35 48.8 43.8 48
L 44.4 48.05
Q 44.65 48.1 45.15 48.15 45.6 48.25 45.65 48.65 45.75 49.45 44.65 49.6 43.5 49.8 43.4 49 Z"/>
</g>

<path id="iconTravelMain_copy_0_Layer1_1_MEMBER_6_1_STROKES" stroke="#FFFF00" stroke-width="2" stroke-linejoin="round" stroke-linecap="round" fill="none" d="
M 36.5 18.275
L 45.55 16.95
Q 45.6267578125 16.940234375 45.7 16.925 48.7341796875 16.4951171875 50.1 14.3 50.8 13.1 51.75 11.1
M 55.6 31.35
L 48.575 32.425 44.85 33
M 19.45 9.7
L 21.4 20.475
Q 21.453515625 20.4560546875 21.5 20.45
L 36.5 18.275
M 15 30.25
L 14.85 29.35
Q 14.2 24.35 17.8 21.9 19.555859375 20.7294921875 21.4 20.475
L 22.975 29.1
M 18.55 50.25
L 16.25 37.3 15 30.25
M 22.975 29.1
L 24.25 36.1 32.85 34.8
M 26.6 49
L 24.25 36.1 16.25 37.3"/>

<path id="iconTravelMain_copy_0_Layer1_1_MEMBER_6_2_STROKES" stroke="#FFD500" stroke-width="2" stroke-linejoin="round" stroke-linecap="round" fill="none" d="
M 43.7 6.25
L 45.7 16.925 46.7 22.25
M 48 29.35
L 48.575 32.425 50.95 45.3
M 36.5 18.275
L 34.55 7.55
M 10.4 30.9
L 15 30.25
M 22.975 29.1
L 38.1 26.95 36.5 18.275
M 15 30.25
L 22.975 29.1"/>

<path id="iconTravelMain_copy_0_Layer1_1_MEMBER_6_3_STROKES" stroke="#FFFFFF" stroke-width="2" stroke-linejoin="round" stroke-linecap="round" fill="none" d="
M 46.7 22.25
L 48 29.35
M 32.85 34.8
L 44.85 33"/>
</defs>

<g transform="matrix( 1.25, 0, 0, 1.25, 0,0) ">
<g transform="matrix( 1, 0, 0, 1, 0,0) ">
<use xlink:href="#iconTravelMain_copy_0_Layer1_0_FILL"/>
</g>

<g transform="matrix( 1, 0, 0, 1, 0.05,0.05) ">
<use xlink:href="#iconTravelMain_copy_0_Layer1_1_MEMBER_0_FILL"/>
</g>

<g transform="matrix( 1, 0, 0, 1, 0.05,0.05) ">
<use xlink:href="#iconTravelMain_copy_0_Layer1_1_MEMBER_1_FILL"/>
</g>

<g transform="matrix( 1, 0, 0, 1, 0.05,0.05) ">
<use xlink:href="#iconTravelMain_copy_0_Layer1_1_MEMBER_2_FILL"/>
</g>

<g transform="matrix( 1, 0, 0, 1, 0,0) ">
<use xlink:href="#iconTravelMain_copy_0_Layer1_1_MEMBER_3_FILL"/>
</g>

<g transform="matrix( 1, 0, 0, 1, 0.05,0.05) ">
<use xlink:href="#iconTravelMain_copy_0_Layer1_1_MEMBER_4_FILL"/>
</g>

<g transform="matrix( 1, 0, 0, 1, 0,0) ">
<use xlink:href="#iconTravelMain_copy_0_Layer1_1_MEMBER_5_FILL"/>
</g>

<g transform="matrix( 1, 0, 0, 1, 0.15,0.25) ">
<use xlink:href="#iconTravelMain_copy_0_Layer1_1_MEMBER_6_1_STROKES"/>

<use xlink:href="#iconTravelMain_copy_0_Layer1_1_MEMBER_6_2_STROKES"/>

<use xlink:href="#iconTravelMain_copy_0_Layer1_1_MEMBER_6_3_STROKES"/>
</g>

<g transform="matrix( 1, 0, 0, 1, 0.05,0.05) ">
<use xlink:href="#iconTravelMain_copy_0_Layer1_1_MEMBER_7_FILL"/>
</g>

<g transform="matrix( 1, 0, 0, 1, 0,0) ">
<use xlink:href="#iconTravelMain_copy_0_Layer1_1_MEMBER_8_FILL"/>
</g>

<g transform="matrix( 1, 0, 0, 1, 0,0) ">
<use xlink:href="#iconTravelMain_copy_0_Layer1_1_MEMBER_9_FILL"/>
</g>

<g transform="matrix( 1, 0, 0, 1, 0,0) ">
<use xlink:href="#iconTravelMain_copy_0_Layer1_1_MEMBER_10_FILL"/>
</g>

<g transform="matrix( 1, 0, 0, 1, 0.2,-0.45) ">
<use xlink:href="#iconTravelMain_copy_0_Layer0_0_FILL"/>
</g>

<g transform="matrix( 1, 0, 0, 1, 0,0) ">
<use xlink:href="#iconTravelMain_copy_0_Layer0_1_FILL"/>
</g>
</g>
</svg>
