
<svg xmlns="http://www.w3.org/2000/svg" version="1.1" xmlns:xlink="http://www.w3.org/1999/xlink" preserveAspectRatio="none" x="0px" y="0px" width="40px" height="43px" viewBox="0 0 40 43">
<defs>
<g id="home_copy_0_Layer0_0_MEMBER_0_FILL">
<path fill="#00003C" stroke="none" d="
M 22.55 0
Q 22.15 0 21.75 0.15
L 10.05 5.7 2.75 10
Q 1.7 10.65 1.8 11.9
L 1.85 12.6
Q 1.95 13.55 2.75 14.05
L 3 14.25 3 20.2 1.15 21
Q 0 21.6 0 22.85
L 0 25.1
Q 0 26.35 1.05 26.9
L 3.85 28.3
Q 4.1 29 4.8 29.3
L 9 31.4
Q 9.5 31.6 9.8 31.6
L 14.1 33.75
Q 14.5 34 15 34 15.5 34 15.95 33.7
L 18.4 32.35 18.8 32.4
Q 19.25 32.4 19.65 32.2
L 30.8 27.05
Q 32 26.45 32 25.25
L 32 24.2
Q 32 23.05 31 22.45
L 31 14.95
Q 31.65 14.55 31.9 13.75 32.1 13 31.7 12.15
L 28.15 6.45 28.1 6.35 24.15 0.8
Q 23.6 0 22.55 0 Z"/>
</g>

<g id="home_copy_0_Layer0_0_MEMBER_1_FILL">
<path fill="#CCCC89" stroke="none" d="
M 20 30
L 31 24.9 31 13.35 20 18.15 20 30 Z"/>
</g>

<g id="home_copy_0_Layer0_0_MEMBER_2_FILL">
<path fill="#FFFFAB" stroke="none" d="
M 20 19.4
L 12.9 8 7 11.9 7 23.9 20 30 20 19.4 Z"/>
</g>

<g id="home_copy_0_Layer0_0_MEMBER_3_FILL">
<path fill="#307B18" stroke="none" d="
M 2 22.85
L 2 25.1 6.1 27.2 9.05 25.65 9.05 23.4 6.1 24.75 2 22.85 Z"/>

<path fill="#50AF23" stroke="none" d="
M 4.95 21.45
L 2 22.85 6.1 24.75 9.05 23.4 4.95 21.45 Z"/>
</g>

<g id="home_copy_0_Layer0_0_MEMBER_4_FILL">
<path fill="#A036BA" stroke="none" d="
M 9 19.2
L 13 21.3
Q 12.75 19.55 11 18.85 9.9 18.4 9.35 18.75 9.05 18.95 9 19.2
M 12 21.95
L 10 20.75 10 26.15 12 27.3 12 21.95
M 10.5 24.1
L 11.5 24.1 11.5 25.1 10.5 25.1 10.5 24.1 Z"/>

<path fill="#178ADA" stroke="none" d="
M 13 21.3
L 9 19.2 9 25.8 13 27.9 13 21.3
M 10 20.75
L 12 21.95 12 27.3 10 26.15 10 20.75 Z"/>

<path fill="#FDFC56" stroke="none" d="
M 11.5 24.1
L 10.5 24.1 10.5 25.1 11.5 25.1 11.5 24.1 Z"/>
</g>

<g id="home_copy_0_Layer0_0_MEMBER_5_MEMBER_0_FILL">
<path fill="#E6E6E6" stroke="none" d="
M 10.8 24.7
L 7.7 26.25 11.9 28.25 15 26.8 10.8 24.7 Z"/>
</g>

<g id="home_copy_0_Layer0_0_MEMBER_5_MEMBER_1_FILL">
<path fill="#CCCCCC" stroke="none" d="
M 7.7 26.25
L 7.7 27.5 11.9 29.6 11.9 28.25 7.7 26.25 Z"/>
</g>

<g id="home_copy_0_Layer0_0_MEMBER_5_MEMBER_2_FILL">
<path fill="#B3B3B3" stroke="none" d="
M 15 28.05
L 15 26.8 11.9 28.25 11.9 29.6 15 28.05 Z"/>
</g>

<g id="home_copy_0_Layer0_0_MEMBER_6_FILL">
<path fill="#50AF23" stroke="none" d="
M 13.35 25.65
L 10.2 27.2 15 29.4 18.05 27.9 13.35 25.65
M 30 24.2
L 29.25 24 18.05 29 18.05 29.05 18.8 29.3 30 24.2 Z"/>

<path fill="#307B18" stroke="none" d="
M 18.05 30.3
L 18.05 30.2 18.8 30.4 30 25.25 30 24.2 18.8 29.3 18.05 29.05 18.05 29 18.05 27.9 15 29.4 10.2 27.2 10.2 29.55 15 32 18.05 30.3 Z"/>
</g>

<g id="home_copy_0_Layer0_0_MEMBER_7_FILL">
<path fill="#A0DDF1" stroke="none" d="
M 19.4 23.55
L 19.4 23.6 19.4 26.35 21.75 25.3 21.75 22.65 19.4 23.55 Z"/>

<path fill="#A036BA" stroke="none" d="
M 19.4 23.6
L 18 24.15 18 27 19.4 26.4 19.4 26.35 19.4 23.6
M 21.95 22.5
Q 21.6181640625 21.710546875 20.6 22.05 19.8 22.35 19.4 23 19.25 23.35 19.2 23.65
L 19.4 23.55 21.75 22.65 21.75 25.3 21.75 25.35 23 24.75 23 22.05 21.95 22.5 Z"/>
</g>

<g id="home_copy_0_Layer0_0_MEMBER_8_FILL">
<path fill="#A0DDF1" stroke="none" d="
M 27.75 19.65
L 25.4 20.55 25.4 20.6 25.4 23.35 27.75 22.3 27.75 19.65 Z"/>

<path fill="#A036BA" stroke="none" d="
M 29 19.05
L 27.95 19.5
Q 27.6181640625 18.710546875 26.6 19.05 25.8 19.35 25.4 20
L 25.2 20.65 25.4 20.55 27.75 19.65 27.75 22.3 27.75 22.35 29 21.75 29 19.05
M 24 21.15
L 24 24 25.4 23.4 25.4 23.35 25.4 20.6 24 21.15 Z"/>
</g>

<g id="home_copy_0_Layer0_0_MEMBER_9_FILL">
<path fill="#A036BA" stroke="none" d="
M 22.4 17.55
L 24.75 16.65 24.75 19.3 24.75 19.35 26 18.75 26 16.05 24.95 16.5
Q 24.6181640625 15.710546875 23.6 16.05 22.8 16.35 22.4 17
L 22.2 17.65 22.4 17.55
M 22.4 17.6
L 21 18.15 21 21 22.4 20.4 22.4 20.35 22.4 17.6 Z"/>

<path fill="#A0DDF1" stroke="none" d="
M 24.75 16.65
L 22.4 17.55 22.4 17.6 22.4 20.35 24.75 19.3 24.75 16.65 Z"/>
</g>

<g id="home_copy_0_Layer0_0_MEMBER_10_FILL">
<path fill="#A036BA" stroke="none" d="
M 9.55 17.35
L 9.55 17.4 11 18 11 15.15 9.55 14.6 9.55 17.35
M 9.55 14.55
L 9.75 14.65
Q 9.65 13.5 8.35 13.05 7.7 12.85 7.25 13.15 7.0759765625 13.3240234375 6.95 13.5
L 6 13.05 6 15.75 7.2 16.35 7.2 16.3 7.2 13.65 9.55 14.55 Z"/>

<path fill="#A0DDF1" stroke="none" d="
M 9.55 14.6
L 9.55 14.55 7.2 13.65 7.2 16.3 9.55 17.35 9.55 14.6 Z"/>
</g>

<g id="home_copy_0_Layer0_0_MEMBER_11_FILL">
<path fill="#A036BA" stroke="none" d="
M 15.55 17.55
L 15.75 17.65
Q 15.65 16.5 14.35 16.05 13.7 15.85 13.25 16.15 13.0759765625 16.3240234375 12.95 16.5
L 12 16.05 12 18.75 13.2 19.35 13.2 19.3 13.2 16.65 15.55 17.55
M 17 18.15
L 15.55 17.6 15.55 20.35 15.55 20.4 17 21 17 18.15 Z"/>

<path fill="#A0DDF1" stroke="none" d="
M 15.55 17.6
L 15.55 17.55 13.2 16.65 13.2 19.3 15.55 20.35 15.55 17.6 Z"/>
</g>

<g id="home_copy_0_Layer0_0_MEMBER_12_FILL">
<path fill="#B048C8" stroke="none" d="
M 8.95 19.8
Q 8.75 19 7.9 19 7.644921875 19 7.45 19.1 7.2671875 19 7.05 19 6.6 19 6.3 19.45 6 19.85 6 20.5 6 21.1 6.3 21.55 6.6 22 7.05 22 7.45 22 7.8 21.55 8.0638671875 21.1541015625 8.1 20.65 8.169921875 20.65 8.25 20.65 8.6 20.65 8.85 20.4 9.05 20.15 8.95 19.8 Z"/>
</g>

<g id="home_copy_0_Layer0_0_MEMBER_13_FILL">
<path fill="#00003C" fill-opacity="0.4" stroke="none" d="
M 0 7.65
L 11 2.55 11 0 0 4.8 0 7.65 Z"/>
</g>

<g id="home_copy_0_Layer0_0_MEMBER_14_FILL">
<path fill="#3DB4FF" stroke="none" d="
M 32 13.2
L 24.55 2 13.05 7.45 20.25 19.1 32 13.2 Z"/>
</g>

<g id="home_copy_0_Layer0_0_MEMBER_15_FILL">
<path fill="#66C3FF" stroke="none" d="
M 11.9 7.85
L 23 2.6 22.55 2 11.05 7.45 18.25 19.1 18.75 18.9 11.9 7.85 Z"/>
</g>

<g id="home_copy_0_Layer0_0_MEMBER_16_FILL">
<path fill="#007BBF" stroke="none" d="
M 12.85 7.95
L 12.65 9.2 14.1 10.05 12.85 7.95 Z"/>
</g>

<g id="home_copy_0_Layer0_0_MEMBER_17_FILL">
<path fill="#1E89D2" stroke="none" d="
M 17.9 19.35
L 18.25 19.1 11.05 7.45 3.8 11.75 3.85 12.4 4.35 12.75 11 8.55 17.4 19.15 17.9 19.35 Z"/>
</g>

<g id="home_copy_0_Layer0_0_MEMBER_18_FILL">
<path fill="#B048C8" stroke="none" d="
M 14.9 22
Q 14.644921875 22 14.45 22.1 14.2671875 22 14.05 22 13.6 22 13.3 22.45 13 22.85 13 23.5 13 24.1 13.3 24.55 13.6 25 14.05 25 14.45 25 14.8 24.55 15.0638671875 24.1541015625 15.1 23.65 15.169921875 23.65 15.25 23.65 15.6 23.65 15.85 23.4 16.05 23.15 15.95 22.8 15.75 22 14.9 22 Z"/>
</g>

<g id="home_copy_0_Layer0_0_MEMBER_19_FILL">
<path fill="#A0DDF1" stroke="none" d="
M 10 12
L 10 11.75
Q 9.95 12.4 10.25 13.05 10.6 13.7 11.1 13.9
L 11.4 14
Q 11.95 14 11.95 13.2 12.0423828125 12.6 11.75 12
L 10 12 Z"/>

<path fill="#B048C8" stroke="none" d="
M 12 12
L 12 11 10 11 10 11.75 10 12 11.75 12 12 12 Z"/>
</g>

<g id="home_copy_0_Layer0_0_MEMBER_20_FILL">
<path fill="#BDBD7F" stroke="none" d="
M 23.2 11.65
L 23.2 10.95 23.2 7.25 20.7 8.55 20.7 12.95 23.2 11.65 Z"/>

<path fill="#1E89D2" stroke="none" d="
M 23.6 11.75
Q 23.7 11.6 23.55 11.45
L 23.2 10.95 23.2 11.65 20.7 12.95 17.8 8.6 17.8 8.15 17.6 8.25
Q 17.4 8.35 17.4 8.5 17.3 8.7 17.45 8.85
L 20.35 13.15
Q 20.55 13.35 20.7 13.35
L 20.9 13.3 23.4 12
Q 23.5 11.95 23.6 11.75 Z"/>

<path fill="#9D2FB7" stroke="none" d="
M 20.5 7.3
Q 20.459765625 7.2271484375 20.3 7.2
L 17.4 5.65 17.4 7 17.8 7.2 20.6 8.6 20.6 7.35 20.5 7.3 20.5 7.3
M 22.2 5.55
L 20.6 4.8 20.6 6.45 22.2 5.55 Z"/>

<path fill="#F4F4A4" stroke="none" d="
M 20.7 8.55
L 20.6 8.6 17.8 7.2 17.8 8.15 17.8 8.6 20.7 12.95 20.7 8.55 Z"/>

<path fill="#7A258E" stroke="none" d="
M 23.2 7.25
L 23.75 7 23.75 5.65 20.6 7.35 20.6 8.6 20.7 8.55 23.2 7.25
M 20.6 4.8
L 20.55 4.8 18.95 5.55 20.6 6.45 20.6 4.8 Z"/>

<path fill="#F355FF" stroke="none" d="
M 23.75 5.65
L 20.55 4.1 17.4 5.65 20.3 7.2
Q 20.459765625 7.2271484375 20.5 7.3
L 20.6 7.35 23.75 5.65
M 20.6 4.8
L 22.2 5.55 20.6 6.45 18.95 5.55 20.55 4.8 20.6 4.8 Z"/>
</g>
</defs>

<g transform="matrix( 1, 0, 0, 1, 0,0) ">
<g transform="matrix( 1.25, 0, 0, 1.25, 0,0) ">
<use xlink:href="#home_copy_0_Layer0_0_MEMBER_0_FILL"/>
</g>

<g transform="matrix( 1.25, 0, 0, 1.25, -2.5,0) ">
<use xlink:href="#home_copy_0_Layer0_0_MEMBER_1_FILL"/>
</g>

<g transform="matrix( 1.25, 0, 0, 1.25, -2.5,0) ">
<use xlink:href="#home_copy_0_Layer0_0_MEMBER_2_FILL"/>
</g>

<g transform="matrix( 1.25, 0, 0, 1.25, 0,0) ">
<use xlink:href="#home_copy_0_Layer0_0_MEMBER_3_FILL"/>
</g>

<g transform="matrix( 1.25, 0, 0, 1.25, 0,0) ">
<use xlink:href="#home_copy_0_Layer0_0_MEMBER_4_FILL"/>
</g>

<g transform="matrix( 1.25, 0, 0, 1.25, -2.5,0) ">
<use xlink:href="#home_copy_0_Layer0_0_MEMBER_5_MEMBER_0_FILL"/>
</g>

<g transform="matrix( 1.25, 0, 0, 1.25, -2.5,0) ">
<use xlink:href="#home_copy_0_Layer0_0_MEMBER_5_MEMBER_1_FILL"/>
</g>

<g transform="matrix( 1.25, 0, 0, 1.25, -2.5,0) ">
<use xlink:href="#home_copy_0_Layer0_0_MEMBER_5_MEMBER_2_FILL"/>
</g>

<g transform="matrix( 1.25, 0, 0, 1.25, 0,0) ">
<use xlink:href="#home_copy_0_Layer0_0_MEMBER_6_FILL"/>
</g>

<g transform="matrix( 1.25, 0, 0, 1.25, 0,0) ">
<use xlink:href="#home_copy_0_Layer0_0_MEMBER_7_FILL"/>
</g>

<g transform="matrix( 1.25, 0, 0, 1.25, 0,0) ">
<use xlink:href="#home_copy_0_Layer0_0_MEMBER_8_FILL"/>
</g>

<g transform="matrix( 1.25, 0, 0, 1.25, 0,0) ">
<use xlink:href="#home_copy_0_Layer0_0_MEMBER_9_FILL"/>
</g>

<g transform="matrix( 1.25, 0, 0, 1.25, 0,0) ">
<use xlink:href="#home_copy_0_Layer0_0_MEMBER_10_FILL"/>
</g>

<g transform="matrix( 1.25, 0, 0, 1.25, 0,0) ">
<use xlink:href="#home_copy_0_Layer0_0_MEMBER_11_FILL"/>
</g>

<g transform="matrix( 1.25, 0, 0, 1.25, 0,0) ">
<use xlink:href="#home_copy_0_Layer0_0_MEMBER_12_FILL"/>
</g>

<g transform="matrix( 1.25, 0, 0, 1.25, 22.5,16.65) ">
<use xlink:href="#home_copy_0_Layer0_0_MEMBER_13_FILL"/>
</g>

<g transform="matrix( 1.25, 0, 0, 1.25, -2.5,0) ">
<use xlink:href="#home_copy_0_Layer0_0_MEMBER_14_FILL"/>
</g>

<g transform="matrix( 1.25, 0, 0, 1.25, 0,0) ">
<use xlink:href="#home_copy_0_Layer0_0_MEMBER_15_FILL"/>
</g>

<g transform="matrix( 1.25, 0, 0, 1.25, -2.5,0) ">
<use xlink:href="#home_copy_0_Layer0_0_MEMBER_16_FILL"/>
</g>

<g transform="matrix( 1.25, 0, 0, 1.25, 0,0) ">
<use xlink:href="#home_copy_0_Layer0_0_MEMBER_17_FILL"/>
</g>

<g transform="matrix( 1.25, 0, 0, 1.25, 0,0) ">
<use xlink:href="#home_copy_0_Layer0_0_MEMBER_18_FILL"/>
</g>

<g transform="matrix( 1.25, 0, 0, 1.25, 0,0) ">
<use xlink:href="#home_copy_0_Layer0_0_MEMBER_19_FILL"/>
</g>

<g transform="matrix( 1.25, 0, 0, 1.25, 0,0) ">
<use xlink:href="#home_copy_0_Layer0_0_MEMBER_20_FILL"/>
</g>
</g>
</svg>
