
<svg xmlns="http://www.w3.org/2000/svg" version="1.1" xmlns:xlink="http://www.w3.org/1999/xlink" preserveAspectRatio="none" x="0px" y="0px" width="40px" height="34px" viewBox="0 0 40 34">
<defs>
<linearGradient id="Gradient_1" gradientUnits="userSpaceOnUse" x1="16.1125" y1="2.8125" x2="17.787499999999998" y2="22.7875" spreadMethod="pad">
<stop  offset="0%" stop-color="#8CFF00"/>

<stop  offset="100%" stop-color="#6CCD00"/>
</linearGradient>

<g id="wShop_copy_0_Layer0_0_FILL">
<path fill="#002800" stroke="none" d="
M 31.65 9.15
Q 31.6 8.35 31.05 7.8 30.45 7.25 29.65 7.25
L 29 7.3 29.6 5.45 29.7 5.25 30.5 2.8
Q 30.75 1.8 30.1 1 29.6 0.25 28.55 0.25
L 25.95 0.35 24.8 0.05 23.9 0
Q 23 0 22.4 0.65
L 20.7 2.55
Q 20.55 1.6 19.7 1.15 19.25 0.85 18.7 0.85
L 16.95 1.3 15.1 1.5
Q 14.4 1.55 13.8 2.15
L 12.3 3.85 12.1 2.5
Q 12.05 1.6 11.25 1.05 10.75 0.7 10.1 0.7
L 9.6 0.75 6.5 1.45
Q 4.25 1.55 3.9 1.7 3.45 1.85 3.1 2.25
L 1.1 4.45
Q 0.3 5.3 0.75 6.55
L 2 9.75 0.5 11.5
Q -0.05 12.15 0 12.95
L 0.1 14.85
Q 0.1 15.35 0.35 15.75 0.15 16.35 0.2 16.7
L 0.3 18.65
Q 0.35 19.45 0.95 19.95 1.5 20.5 2.3 20.5
L 5.7 20.35 7.3 25.55
Q 7.8 27 9.25 27
L 13 26.15
Q 13.55 26 14.05 25.5
L 15.85 23.45 16.4 25.1
Q 16.9 26.5 18.35 26.5
L 21.85 25.65
Q 22.5 25.5 22.85 25.05
L 24.85 22.85
Q 25.25 22.25 25.3 21.9
L 25.8 19.35 25.85 19.25 28.15 19.15
Q 28.95 19.05 29.5 18.45
L 31.45 16.25
Q 32 15.6 31.95 14.8
L 31.85 12.9
Q 31.85 12.4 31.6 12 31.8 11.4 31.75 11.05
L 31.65 9.15 Z"/>
</g>

<g id="wShop_copy_0_Layer0_1_FILL">
<path fill="#007100" stroke="none" d="
M 14.5 22
L 11.2 22.75 9.25 25
Q 9.35 24.95 10.15 24.75
L 12.55 24.2 14.5 22
M 7.1 18.25
L 9.05 16.05 4.25 16.3 2.3 18.5 7.1 18.25
M 2.1 14.75
L 5.85 14.55 7.8 12.35 4.05 12.55 2.1 14.75
M 23.35 21.5
L 20.3 22.3 18.35 24.5 21.4 23.7 23.35 21.5
M 24.7 15.2
L 22.75 17.4 28 17.15 30 14.95 24.7 15.2
M 29.75 11.2
L 25.7 11.4 23.7 13.6 27.8 13.4 29.75 11.2 Z"/>
</g>

<g id="wShop_copy_0_Layer0_2_FILL">
<path fill="#009900" stroke="none" d="
M 16.75 12.45
L 14.8 14.65 18.35 24.5 20.3 22.3 16.75 12.45
M 2.3 18.5
L 4.25 16.3 4.15 14.4 2.2 16.6 2.3 18.5
M 2.1 14.75
L 4.05 12.55 3.95 10.65 2 12.85 2.1 14.75
M 9.05 16.05
L 7.1 18.25 9.25 25 11.2 22.75 9.05 16.05
M 5.85 14.55
L 6.45 16.35 8.4 14.15 7.8 12.35 5.85 14.55
M 7.15 10.45
L 5.6 6.15
Q 4.7 3.9 4.55 3.6
L 2.6 5.8 5.2 12.65 7.15 10.45
M 15 6.3
Q 15.3 3.7 15.3 3.5
L 13.35 5.7 12.55 11.2
Q 12.35 12.55 11.95 13.9 11.45 15.7 11.1 16.6
L 13.05 14.35
Q 13.4 13.5 13.9 11.7
L 15 6.3
M 22.45 10.7
Q 22.7 9.75 23.15 7.6
L 23.9 2 21.95 4.2 21.2 9.8
Q 20.85 11.75 20.5 12.9 20.1 14.55 19.55 15.9
L 21.5 13.7
Q 22.05 12.35 22.45 10.7 Z"/>
</g>

<g id="wShop_copy_0_Layer0_3_FILL">
<path fill="url(#Gradient_1)" stroke="none" d="
M 28.55 2.25
L 26.9 2.35
Q 25.8 2.35 25.6 2.3
L 24.25 2 23.9 2 23.15 7.6
Q 22.7 9.75 22.45 10.7 22.05 12.35 21.5 13.7 20.65 11.7 19.75 8.55 19.1 5.85 18.7 2.85
L 17.3 3.25 15.3 3.5
Q 15.3 3.7 15 6.3
L 13.9 11.7 13.05 14.35
Q 12.6 13.25 12.35 12.4
L 10.1 2.7 8.25 3.15
Q 7.55 3.35 6.6 3.45
L 4.55 3.6
Q 4.7 3.9 5.6 6.15
L 7.15 10.45 3.95 10.65 4.05 12.55 7.8 12.35 8.4 14.15 4.15 14.4 4.25 16.3 9.05 16.05 11.2 22.75 14.5 22 16.4 14.35
Q 16.65 13.4 16.75 12.45
L 20.3 22.3 23.35 21.5 24.7 15.2 30 14.95 29.85 13 25.2 13.25 25.7 11.4 29.75 11.2 29.65 9.25 26.25 9.45 28.55 2.25 Z"/>
</g>
</defs>

<g transform="matrix( 1, 0, 0, 1, 0,0) ">
<g transform="matrix( 1.251556396484375, 0, 0, 1.2518463134765625, 0,0) ">
<use xlink:href="#wShop_copy_0_Layer0_0_FILL"/>
</g>

<g transform="matrix( 1.251556396484375, 0, 0, 1.2518463134765625, 0,0) ">
<use xlink:href="#wShop_copy_0_Layer0_1_FILL"/>
</g>

<g transform="matrix( 1.251556396484375, 0, 0, 1.2518463134765625, 0,0) ">
<use xlink:href="#wShop_copy_0_Layer0_2_FILL"/>
</g>

<g transform="matrix( 1.251556396484375, 0, 0, 1.2518463134765625, 0,0) ">
<use xlink:href="#wShop_copy_0_Layer0_3_FILL"/>
</g>
</g>
</svg>
