
<svg xmlns="http://www.w3.org/2000/svg" version="1.1" xmlns:xlink="http://www.w3.org/1999/xlink" preserveAspectRatio="none" x="0px" y="0px" width="512px" height="512px" viewBox="0 0 512 512">
<defs>
<g id="Layer4_0_FILL">
<path fill="#00003C" fill-opacity="0.30196078431372547" stroke="none" d="
M 472 289.6
Q 480 280 480 267.2
L 480 212
Q 480 193.6 467.2 184
L 467.2 228.8
Q 467.2 241.6 459.2 251.2
L 318.4 439.2
Q 305.6 454.4 287.2 454.4 277.6 454.4 268 448.8
L 51.2 324
Q 47.2 321.6 44.8 319.2
L 44.8 328.8
Q 44.8 351.2 64 362.4
L 280.8 487.2
Q 290.4 492.8 300 492.8 318.4 492.8 331.2 477.6
L 472 289.6
M 365.6 86.4
Q 363.2 78.4 358.4 72
L 376 143.2 379.2 142.4 365.6 86.4 Z"/>

<path fill="#00003C" stroke="none" d="
M 352.8 48
Q 349.6 35.2 338.4 27.2 328 19.2 315.2 19.2
L 308.8 19.2 113.6 52.8
Q 99.2 56 90.4 66.4 81.6 76.8 81.6 91.2
L 81.6 145.6 82.4 155.2 91.2 192.8 63.2 197.6
Q 49.6 200 40.8 211.2 32 221.6 32 235.2
L 32 290.4
Q 32 308.8 44.8 319.2 47.2 321.6 51.2 324
L 268 448.8
Q 277.6 454.4 287.2 454.4 305.6 454.4 318.4 439.2
L 459.2 251.2
Q 467.2 241.6 467.2 228.8
L 467.2 184 467.2 173.6
Q 467.2 155.2 452.8 144 442.4 135.2 428.8 135.2
L 379.2 142.4 376 143.2 358.4 72 352.8 48
M 347.2 187.2
L 428.8 173.6 428.8 228.8 287.2 416 70.4 290.4 70.4 235.2 130.4 225.6 139.2 223.2 120 145.6 120 91.2 315.2 57.6 347.2 187.2 Z"/>

<path fill="#FF7700" stroke="none" d="
M 120 91.2
L 120 145.6 139.2 223.2 130.4 225.6 152 221.6 120 91.2
M 428.8 228.8
L 428.8 173.6 287.2 360 70.4 235.2 70.4 290.4 287.2 416 428.8 228.8 Z"/>

<path fill="#FFCC00" stroke="none" d="
M 428.8 173.6
L 347.2 187.2 315.2 57.6 120 91.2 152 221.6 130.4 225.6 70.4 235.2 287.2 360 428.8 173.6 Z"/>
</g>
</defs>

<g transform="matrix( 1, 0, 0, 1, 0,0) ">
<use xlink:href="#Layer4_0_FILL"/>
</g>
</svg>
