
<svg xmlns="http://www.w3.org/2000/svg" version="1.1" xmlns:xlink="http://www.w3.org/1999/xlink" preserveAspectRatio="none" x="0px" y="0px" width="512px" height="512px" viewBox="0 0 512 512">
<defs>
<linearGradient id="Gradient_1" gradientUnits="userSpaceOnUse" x1="123.9" y1="280.8" x2="206.4" y2="338.3" spreadMethod="pad">
<stop  offset="0%" stop-color="#E62E35"/>

<stop  offset="20%" stop-color="#C1272D"/>

<stop  offset="100%" stop-color="#990006"/>
</linearGradient>

<linearGradient id="Gradient_2" gradientUnits="userSpaceOnUse" x1="99.07499999999999" y1="81.625" x2="398.125" y2="350.375" spreadMethod="pad">
<stop  offset="0%" stop-color="#8CFF00"/>

<stop  offset="100%" stop-color="#529E00"/>
</linearGradient>

<linearGradient id="Gradient_3" gradientUnits="userSpaceOnUse" x1="199.05" y1="229.98749999999998" x2="199.05" y2="260.41249999999997" spreadMethod="pad">
<stop  offset="0%" stop-color="#ED1C24"/>

<stop  offset="100%" stop-color="#C1272D"/>
</linearGradient>

<linearGradient id="Gradient_4" gradientUnits="userSpaceOnUse" x1="123.05" y1="114.6875" x2="123.05" y2="145.1125" spreadMethod="pad">
<stop  offset="0%" stop-color="#ED1C24"/>

<stop  offset="100%" stop-color="#C1272D"/>
</linearGradient>

<linearGradient id="Gradient_5" gradientUnits="userSpaceOnUse" x1="314.3" y1="84.2375" x2="314.3" y2="114.66250000000001" spreadMethod="pad">
<stop  offset="0%" stop-color="#ED1C24"/>

<stop  offset="100%" stop-color="#C1272D"/>
</linearGradient>

<g id="icons_Start_0_Layer8_0_FILL">
<path fill="#00003C" stroke="none" d="
M 389.15 318.8
Q 386.1 317.25 383.8 317.25
L 374.6 318.8
Q 363.5 319.55 357.75 323.75 353.95 321.45 350.1 321.45 346.65 321.45 343.6 323.4
L 340.55 325.3 337.85 324.9 333.65 324.9
Q 326.75 324.9 319.85 327.2 312.2 330.3 306.45 337.2 300.7 332.2 294.2 331.05
L 290.35 331.05
Q 283.5 331.05 279.25 333.75
L 276.2 333.35
Q 273.5 333.35 270.45 334.9 268.15 336.05 266.25 336.05
L 266.25 333 265.85 331.85
Q 264.7 324.55 258.95 319.95 253.6 315.35 245.95 315.35 236 315.35 229.85 322.6 224.15 329.15 225.25 338.75
L 226.05 342.2 223.75 341.4 219.9 341.05 217.6 341.4 217.25 333
Q 216.45 326.05 210.35 323.4 208.05 322.25 205.75 322.25 201.9 322.25 198.85 324.55 198.1 325.3 193.5 325.7
L 191.95 325.7
Q 188.15 326.05 185.45 327.2
L 184.7 327.2
Q 182.75 327.2 178.2 328.75 173.2 330.65 166.7 331.05
L 159.8 332.2
Q 152.15 334.15 146.4 334.15
L 143.35 333.75 141.4 333.75
Q 137.2 333.75 133.35 336.8 129.15 341.05 129.95 346.8
L 132.2 366.35
Q 133.75 372.45 138.75 374.75 141.05 375.9 143.7 375.9 146.8 375.9 149.05 374.75
L 152.9 416.95
Q 153.65 421.15 156.35 423.85 154.45 428.05 154.8 431.5
L 157.1 450.65
Q 158.25 456.4 163.6 459.5 165.9 460.65 168.6 460.65 171.65 460.65 173.95 459.5
L 177.8 501.65
Q 178.55 508.2 183.9 510.5 186.6 512 189.3 512 192.35 512 195 510.5 198.1 508.55 204.2 508.55
L 206.9 508.95 208.05 508.95
Q 213.8 508.95 217.25 504.35
L 219.15 500.15
Q 227.2 505.1 235.6 505.1
L 240.6 504.75
Q 254.75 502.45 262.8 490.55 270.45 478.65 268.55 462.55
L 268.15 460.25
Q 265.85 445.7 256.65 436.5 247.5 427.65 234.45 427.65 229.5 427.65 226.8 428.45
L 222.2 429.95 221.85 424.2 220.3 418.85 222.2 418.1 224.5 418.1
Q 227.95 418.1 230.25 416.95 232.55 415.4 237.15 415.4
L 241.35 416.15
Q 244.05 416.15 245.55 415
L 247.1 415.4
Q 251.3 415.4 254 412.7
L 261.25 412.35 263.95 412.7 268.55 411.95 270.1 411.95
Q 273.15 411.95 276.2 410.05
L 276.6 415
Q 286.15 451.05 286.55 484.8 287.3 491.7 292.65 494.75 296.5 496.3 298.05 496.3 301.1 496.3 304.15 494.4
L 316.05 492.45
Q 329.45 490.15 339.4 482.9 344 479.45 347.05 474.05 357 485.2 370.8 485.2
L 376.15 484.8
Q 390.7 482.9 398.35 471 406 458.7 403.7 441.85
L 403.7 440.7
Q 401.4 425.75 392.25 416.95 383.05 407.75 370 407.75
L 363.5 408.5
Q 368.85 403.15 371.15 396.25
L 373.45 396.6 380.75 395.85
Q 392.6 394.3 399.5 385.9 406.4 377.85 405.65 366.7
L 405.25 362.9
Q 403.7 354.45 397.95 349.45 399.9 345.65 398.75 341.8
L 394.9 326.05
Q 393.75 321.1 389.15 318.8 Z"/>
</g>

<g id="icons_Start_0_Layer7_0_FILL">
<path fill="#00003C" stroke="none" d="
M 440.85 73.45
Q 434.75 38.9 406 17.85 377.3 -3.25 342.45 0.6
L 85.9 37.4
Q 66.75 40.45 50.65 50.8 34.95 61.15 25.4 77.65
L 12.35 98.35
Q -4.5 125.95 1.65 157.4
L 42.25 379
Q 48.75 413.5 77.1 434.55 105.8 456.05 140.65 451.8
L 397.2 415
Q 415.95 412.35 432.05 402 447.35 391.65 457.3 375.55
L 469.2 356
Q 487.6 328.35 481.45 295
L 440.85 73.45 Z"/>
</g>

<g id="icons_Start_0_Layer6_0_FILL">
<path fill="url(#Gradient_1)" stroke="none" d="
M 457.7 346
L 457.55 345.9
Q 456.1955078125 348.1037109375 454.65 350.25 437.8 374 408.3 378.2
L 154.45 414.65
Q 125.35 418.85 100.45 401.2 75.95 383.6 70.55 354.45
L 30 132.85
Q 25.4693359375 108.39296875 36.85 88
L 25.4 106.4
Q 12 128.65 16.95 154.7
L 57.55 376.3
Q 62.9 405.45 87.4 423.05 111.55 440.7 141.05 436.5
L 394.9 399.7
Q 427.45 395.1 444.3 367.5
L 457.7 346 Z"/>

<path fill="#FFFFFF" stroke="none" d="
M 396.05 29.35
Q 371.55 12.1 342.05 15.9
L 88.2 52.7
Q 58.7 56.95 41.85 80.35 39.0728515625 84.1091796875 36.85 88 25.4693359375 108.39296875 30 132.85
L 70.55 354.45
Q 75.95 383.6 100.45 401.2 125.35 418.85 154.45 414.65
L 408.3 378.2
Q 437.8 374 454.65 350.25 456.1955078125 348.1037109375 457.55 345.9 471.009375 324.1763671875 466.15 297.7
L 425.55 76.1
Q 420.55 46.95 396.05 29.35 Z"/>
</g>

<g id="icons_Start_0_Layer5_0_FILL">
<path fill="#007F00" stroke="none" d="
M 403.15 79.5
Q 399.95 59.45 382.35 47.45 365.55 35.45 346.35 37.85
L 91.85 74.65
Q 71.85 77.9 60.6 93.9 48.6 109.9 52.6 129.95
L 92.65 351.75
Q 96.65 370.95 113.45 382.95 130.25 395.8 150.25 392.6
L 403.95 355.75
Q 424.75 353.35 436 337.35 448 320.5 444 300.5
L 403.15 79.5
M 347.15 45.85
Q 348.75 45.05 353.55 45.05 368.75 45.05 380.75 55.45 383.7978515625 58.09140625 386.25 61.05 394.0134765625 69.611328125 396.05 81.1
L 436.65 302.7
Q 439.7 319.55 430.15 332.6 419.8 346.4 403.35 348.7
L 149.45 385.1 143.7 385.5
Q 128 385.5 116.15 375.55 111.1060546875 371.432421875 107.6 366.4
L 104 360.1
Q 101.77421875 355.48984375 100.65 350.15
L 59.8 128.35
Q 56.6 111.5 66.25 98.7 76.65 84.3 93.45 81.9
L 347.15 45.85 Z"/>

<path fill="url(#Gradient_2)" stroke="none" d="
M 353.55 45.8
Q 349.35 45.8 347.45 46.2
L 93.55 82.65
Q 76.7 84.95 66.75 98.75 57.15 112.15 60.25 128.65
L 100.85 350.25
Q 101.8958984375 355.496484375 104 360.1
L 107.6 366.4
Q 111.1060546875 371.432421875 116.15 375.55 128 385.5 143.7 385.5
L 149.45 385.1 403.35 348.7
Q 419.8 346.4 430.15 332.6 439.7 319.55 436.65 302.7
L 396.05 81.1
Q 394.0134765625 69.611328125 386.25 61.05 383.94765625 58.465234375 381.1 56.15 368.85 45.8 353.55 45.8 Z"/>
</g>

<g id="icons_Start_0_Layer4_0_FILL">
<path fill="#0086FF" stroke="none" d="
M 415.95 191.5
L 407.55 146.25
Q 371.95 161.2 354.3 172.35 324.05 191.1 285.8 227.95 258.2 254.4 222.6 309.2 190.05 359.45 161.7 383.2
L 289.6 364.8
Q 295.75 341.8 308.35 314.55 320.25 288.1 334 266.65 352 238.3 375.4 217.6 397.2 197.65 415.95 191.5 Z"/>
</g>

<g id="icons_Start_0_Layer3_0_FILL">
<path fill="#FFFF00" stroke="none" d="
M 221.5 290.9
L 208.7 292.5 211.1 306.9 221.5 290.9
M 152.65 334.95
L 159.85 370.15
Q 171.05 360.55 180.65 349.35
L 177.45 331.7 152.65 334.95
M 147.05 302.1
L 151.85 327.7 175.85 324.5 171.05 298.1 147.05 302.1
M 99.85 254.05
L 95.05 254.05 112.65 348.55
Q 113.45 354.95 119.05 362.15
L 99.85 254.05
M 142.25 143.55
L 140.65 133.95 75.05 143.55 88.65 216.4 94.25 216.4
Q 93.45 186 111.85 165.15 123.85 151.55 142.25 143.55
M 132.65 89.1
L 95.05 93.9
Q 83.05 96.3 76.65 105.1 69.45 114.7 71.85 126.7
L 73.45 135.55 139.05 126.7 132.65 89.1
M 258.3 123.5
L 249.5 72.25 214.3 77.1 223.1 129.15 258.3 123.5
M 206.3 77.9
L 171.05 83.5 179.85 135.55 215.9 129.95 206.3 77.9
M 319.15 61.85
L 286.3 66.65 295.9 117.9 327.95 113.9 319.15 61.85
M 408.75 334.95
Q 416.75 332.55 420.75 326.1 427.2 316.5 425.55 304.5
L 423.95 297.3 401.55 299.7 408.75 334.95
M 370.35 342.15
L 364.75 311.7 319.95 318.1
Q 310.35 338.95 306.35 350.95
L 370.35 342.15
M 356.75 270.85
L 344.75 271.65 343.95 273.25
Q 333.55 289.3 323.15 310.1
L 363.15 304.5 356.75 270.85
M 422.35 289.3
L 417.55 262.05 395.15 264.45 400.75 292.5 422.35 289.3
M 410.35 224.4
L 407.95 208.4
Q 398.35 214 387.95 222.8
L 387.95 226.8 410.35 224.4
M 391.95 130.75
Q 383.95 138.75 372.75 144.35
L 373.55 149.15
Q 383.15 144.35 395.15 139.55
L 393.55 129.15 391.95 130.75
M 356.75 57.85
L 356.75 60.25 364.75 103.5
Q 368.75 99.5 372.75 89.9
L 377.55 80.3
Q 378.35 77.9 382.35 74.65 373.55 59.45 356.75 57.85
M 443.2 238.05
Q 441.6 231.65 436.8 227.6 431.2 223.6 424.75 224.4
L 384.15 230.7 356 235.1 342.35 237.25
Q 348.75 236.45 354.35 240.45 355.2197265625 241.1748046875 355.95 241.95 359.43984375 245.6095703125 360.75 250.85 361.3328125 255.5119140625 359.35 259.75 358.636328125 261.3291015625 357.55 262.85 353.733984375 268.1923828125 348.45 269.15
L 360.8 267.25 392.1 262.3 429.6 256.45
Q 436 255.65 440 250.05 444 244.45 443.2 238.05
M 199.1 239.65
L 201.5 254.85 229.5 250.85 227.1 235.65 199.1 239.65
M 252.7 247.65
L 268.7 229.2 234.3 234.85 237.5 250.05 252.7 247.65
M 338.35 169.95
L 335.15 151.55 303.1 156.35 309.55 192.4
Q 323.15 180.4 338.35 169.95
M 229.5 166.75
L 235.1 195.6 270.3 190.8 264.7 161.95 229.5 166.75
M 227.1 197.2
L 222.3 167.55 187.1 173.15 191.9 202 227.1 197.2
M 411.95 92.3
Q 415.15 85.9 412.75 80.3 410.35 73.85 404.75 70.65 398.35 67.45 392.75 69.85 386.35 72.25 383.15 78.7 375.95 93.1 371.15 101.9 368.1568359375 105.8908203125 363.9 108.6 357.9638671875 112.49765625 349.55 113.9
L 348.75 113.9 333.05 116.15 294.45 121.8 262.95 126.4 178.25 138.75 166.25 72.25
Q 164.65 65.05 159.85 61.85 154.25 57.85 147.85 59.45 140.65 60.25 137.45 65.85 133.45 70.65 135.05 77.9
L 147.05 145.95
Q 137.45 149.15 128.65 154.75
L 128.65 155.55
Q 96.781640625 175.8298828125 98.35 218.45 98.519921875 222.9005859375 99.05 227.6
L 99.85 228.4 103.45 250.4 109.45 286.9
Q 109.45 287.7 110.25 288.5
L 110.25 289.3 128.65 388.6
Q 129.45 395 135.05 399 140.65 402.2 147.05 401.4 153.45 399.8 157.45 394.2 160.65 388.6 159.85 382.15
L 143.85 299.7 174.25 295.7 190.3 378.95
Q 191.1 385.4 196.7 389.4 201.5 392.6 208.7 391.8 215.1 390.2 219.1 385.4 222.3 379.75 221.5 373.35
L 205.5 290.9 252.7 282.9
Q 247.1 282.9 243.1 279.65 238.3 275.65 237.5 269.25 235.9 262.85 239.9 257.25 243.1 253.25 247.1 251.65
L 199.9 258.85 195.95 237.15 190.15 205.3 183.9 170.75 268.75 158.35 300.25 153.75 339.15 148.05 353.55 145.95
Q 362.629296875 144.553125 370.2 141.65 388.7076171875 134.6169921875 398.35 118.7
L 399.15 117.9
Q 404.75 107.5 411.95 92.3
M 146.25 182
Q 149.45 179.6 153.45 177.95
L 159.1 209.75 164.75 241.65 168.65 263.65 139.05 268.45 135.1 245.9 131.05 222.8 131.05 223.6
Q 130.3212890625 218.4990234375 130.35 213.85 130.5478515625 193.1224609375 146.25 182
M 137.45 248.45
L 140.65 263.65 163.85 260.45 160.65 245.25 137.45 248.45
M 132.65 210
L 154.25 207.6 149.45 182
Q 134.25 191.6 132.65 210 Z"/>

<path fill="#FFFFFF" stroke="none" d="
M 355.95 241.95
Q 355.2197265625 241.1748046875 354.35 240.45 348.75 236.45 342.35 237.25
L 250.3 250.85
Q 248.7 250.85 247.1 251.65 243.1 253.25 239.9 257.25 235.9 262.85 237.5 269.25 238.3 275.65 243.1 279.65 247.1 282.9 252.7 282.9 253.5 282.9 255.1 282.9
L 347.15 269.25 347.95 269.25 348.3 269.2
Q 348.3837890625 269.1861328125 348.45 269.15 353.733984375 268.1923828125 357.55 262.85 358.636328125 261.3291015625 359.35 259.75 361.3328125 255.5119140625 360.75 250.85 359.43984375 245.6095703125 355.95 241.95
M 356.75 155.55
Q 349.55 156.35 346.35 161.95 342.9232421875 166.062109375 343.6 171.35
L 343.95 173.15 343.95 173.95 353.55 226.8 353.55 229.2 353.75 230.4
Q 354.387890625 232.9359375 356 235.1
L 384.15 230.7
Q 385.2580078125 227.15546875 384.75 223.6
L 384.75 222 375.15 168.35 375.15 167.55
Q 373.55 161.15 368.75 157.95 363.15 153.95 356.75 155.55 Z"/>

<path fill="#FFD500" stroke="none" d="
M 99.05 227.6
Q 98.519921875 222.9005859375 98.35 218.45
L 79.05 221.2
Q 72.65 222 68.65 227.6 64.65 233.25 65.45 239.65 66.25 246.05 71.85 250.05 77.45 254.05 83.85 253.25
L 103.45 250.4 99.85 228.4 99.05 227.6
M 268.75 158.35
L 275.1 193.2 190.15 205.3 195.95 237.15 295.9 222.8
Q 299.9 222 303.9 219.6 307.15 216.4 308.75 212.4 310.35 208.4 309.55 204.4
L 300.25 153.75 268.75 158.35
M 263.9 42.65
Q 256.7 43.45 253.5 49.05 249.5 53.85 251.1 61.05
L 262.95 126.4 294.45 121.8 282.3 55.45
Q 280.7 48.25 275.9 45.05 270.3 41.05 263.9 42.65
M 392.1 262.3
L 360.8 267.25 376.75 350.95
Q 377.55 357.35 383.15 361.35 387.95 364.55 395.15 363.75 401.55 362.15 405.55 357.35 408.75 351.75 407.95 345.35
L 392.1 262.3
M 353.55 145.95
L 339.15 148.05 343.6 171.35
Q 342.9232421875 166.062109375 346.35 161.95 349.55 156.35 356.75 155.55 363.15 153.95 368.75 157.95 373.55 161.15 375.15 167.55
L 370.2 141.65
Q 362.629296875 144.553125 353.55 145.95
M 345.55 35.45
Q 339.95 31.45 333.55 33.05 326.35 33.85 323.15 39.45 319.15 44.25 320.75 51.45
L 333.05 116.15 348.75 113.9 349.55 113.9
Q 357.9638671875 112.49765625 363.9 108.6
L 351.95 45.85
Q 350.35 38.65 345.55 35.45
M 130.35 213.85
Q 130.3212890625 218.4990234375 131.05 223.6
L 131.05 222.8 135.1 245.9 164.75 241.65 159.1 209.75 130.35 213.85 Z"/>
</g>

<g id="icons_Start_0_Layer2_0_FILL">
<path fill="#660004" stroke="none" d="
M 223.1 246.05
Q 223.1 236.45 215.9 229.2 209.5 222.8 199.9 222.8 190.3 222.8 183.9 229.2 177.45 236.45 177.45 246.05 177.45 255.65 183.9 262.05 190.3 269.25 199.9 269.25 209.5 269.25 215.9 262.05 223.1 255.65 223.1 246.05
M 211.1 234.85
Q 215.1 239.65 215.1 246.05 215.1 252.45 211.1 256.45 206.3 261.25 199.9 261.25 193.5 261.25 188.7 256.45 184.7 252.45 184.7 246.05 184.7 239.65 188.7 234.85 193.5 230.85 199.9 230.85 206.3 230.85 211.1 234.85
M 139.85 146.75
Q 146.25 140.35 146.25 130.75 146.25 121.1 139.85 114.7 133.45 108.3 123.85 108.3 114.25 108.3 107.05 114.7 100.65 121.1 100.65 130.75 100.65 140.35 107.05 146.75 114.25 153.95 123.85 153.95 133.45 153.95 139.85 146.75
M 134.25 141.95
Q 130.25 145.95 123.85 145.95 116.65 145.95 112.65 141.95 107.85 137.15 107.85 130.75 107.85 124.3 112.65 119.5 116.65 115.5 123.85 115.5 130.25 115.5 134.25 119.5 139.05 124.3 139.05 130.75 139.05 137.15 134.25 141.95
M 331.15 116.3
Q 338.35 109.9 338.35 100.3 338.35 90.7 331.15 83.5 324.75 77.1 315.15 77.1 305.55 77.1 298.3 83.5 291.9 90.7 291.9 100.3 291.9 109.9 298.3 116.3 305.55 123.5 315.15 123.5 324.75 123.5 331.15 116.3
M 330.35 100.3
Q 330.35 106.7 325.55 110.7 321.55 115.5 315.15 115.5 308.75 115.5 303.9 110.7 299.9 106.7 299.9 100.3 299.9 93.9 303.9 89.1 308.75 85.1 315.15 85.1 321.55 85.1 325.55 89.1 330.35 93.9 330.35 100.3 Z"/>

<path fill="url(#Gradient_3)" stroke="none" d="
M 215.1 246.05
Q 215.1 239.65 211.1 234.85 206.3 230.85 199.9 230.85 193.5 230.85 188.7 234.85 184.7 239.65 184.7 246.05 184.7 252.45 188.7 256.45 193.5 261.25 199.9 261.25 206.3 261.25 211.1 256.45 215.1 252.45 215.1 246.05 Z"/>

<path fill="url(#Gradient_4)" stroke="none" d="
M 123.85 145.95
Q 130.25 145.95 134.25 141.95 139.05 137.15 139.05 130.75 139.05 124.3 134.25 119.5 130.25 115.5 123.85 115.5 116.65 115.5 112.65 119.5 107.85 124.3 107.85 130.75 107.85 137.15 112.65 141.95 116.65 145.95 123.85 145.95 Z"/>

<path fill="url(#Gradient_5)" stroke="none" d="
M 325.55 110.7
Q 330.35 106.7 330.35 100.3 330.35 93.9 325.55 89.1 321.55 85.1 315.15 85.1 308.75 85.1 303.9 89.1 299.9 93.9 299.9 100.3 299.9 106.7 303.9 110.7 308.75 115.5 315.15 115.5 321.55 115.5 325.55 110.7 Z"/>
</g>

<g id="icons_Start_0_Layer1_0_FILL">
<path fill="#00003C" stroke="none" d="
M 391.9 304.45
Q 389.6 303.3 386.5 303.3
L 377.35 304.8
Q 367.75 304.8 360.5 309.8 356.65 307.5 352.8 307.5 348.6 307.5 346.3 309.4
L 343.25 311.35 335.95 310.55
Q 328.3 310.55 322.55 313.25 314.15 315.95 309.15 322.85 304.2 318.25 296.55 317.1
L 293.1 316.7
Q 286.95 316.7 281.6 319.75
L 278.9 319.4
Q 275.1 319.4 273.15 320.9
L 268.95 321.7 268.95 318.6 268.6 317.85
Q 267.45 310.55 261.7 305.95 256.35 301.35 248.65 301.35 238.7 301.35 232.6 308.25 226.85 315.15 228 324.75
L 228.75 327.85 222.65 327.05 220.35 327.05 219.95 318.6
Q 219.55 312.1 213.05 309.05 211.5 308.25 208.45 308.25 204.65 308.25 201.55 310.55
L 194.3 311.7
Q 191.25 311.7 188.15 313.25
L 187 312.85
Q 183.95 312.85 180.9 314.8 179.35 315.15 169.4 317.1
L 162.5 318.25
Q 153.3 319.75 149.1 319.75
L 146.05 319.75 144.15 319.4
Q 139.15 319.4 136.1 322.85 131.9 327.05 132.65 332.8
L 134.95 352
Q 136.1 357.75 141.45 360.8 143.75 361.95 146.45 361.95 149.1 361.95 151.8 360.4
L 154.85 384.2 155.6 402.6
Q 156.4 407.2 159.05 409.85 157.15 412.95 157.55 417.15
L 159.85 436.7
Q 161 442.85 166.35 445.15 168.65 446.3 171.3 446.3 174 446.3 176.7 445.15
L 180.5 487.3
Q 181.25 493.45 186.65 496.5 188.95 497.65 192 497.65 195.05 497.65 197.35 496.5 201.2 494.6 206.95 494.6
L 210.75 494.6
Q 216.5 494.6 219.55 490.4 221.5 488.1 221.85 486.15 228.75 490.75 238.35 490.75
L 243.3 490.4
Q 257.45 488.45 265.5 476.6 273.15 464.7 271.25 448.2
L 270.9 445.9
Q 268.6 431.35 259.4 422.15 250.2 413.3 237.2 413.3
L 229.5 414.1 224.95 415.6 224.55 410.25 223 404.5 224.95 403.75 227.2 404.1
Q 230.3 404.1 232.95 402.6
L 239.85 401.05
Q 241.4 401.8 244.05 401.8
L 248.3 401.05 249.8 401.05
Q 254.05 401.05 256.7 398.75 258.25 398 261.3 398
L 266.65 398.75
Q 268.95 398.75 271.25 397.6
L 272.4 398
Q 275.85 398 278.9 396.05 278.15 398.75 279.3 401.05 288.85 436.3 289.25 470.85 289.25 476.95 295.4 480.8 297.7 481.95 300.75 481.95 304.55 481.95 306.85 480.05
L 318.75 478.5
Q 333.3 475.45 342.1 468.9 346.7 464.7 349.75 460.1 359.7 471.2 373.5 471.2
L 378.5 470.85
Q 393.05 468.55 401.05 456.65 408.75 444.75 406.45 427.9
L 406.45 426.75
Q 404.15 411.4 394.95 402.6 385.75 393.75 372.35 393.75 368.15 393.75 365.85 394.15 371.6 388.8 373.5 382.25
L 375.8 382.25
Q 380.75 382.25 383.45 381.9 395.35 380.35 402.2 371.9 409.1 363.85 408.35 352.35
L 407.95 348.9
Q 406.45 340.85 400.7 335.1 402.6 331.3 401.45 327.85
L 397.6 312.1
Q 396.45 307.1 391.9 304.45
M 347.85 404.1
L 347.45 403.35 348.6 403.35 347.85 404.1 Z"/>
</g>

<g id="icons_Start_0_Layer0_0_FILL">
<path fill="#FFFFFF" stroke="none" d="
M 395.65 429.6
Q 394.15 417.7 386.85 411.2 379.2 403.9 367.7 406.2 357.75 408.5 353.55 417.3 350.1 425.35 351.65 435.7 353.15 446.85 359.7 453.75 366.95 461.4 377.7 459.85 388.4 458.35 393 448.75 397.2 440.7 395.65 429.6
M 372.3 420.4
Q 381.5 420 383.05 430.35 383.8 435.35 381.5 439.55 378.45 444.15 373.45 443.75 364.65 442.6 363.9 431.5 363.5 420.75 372.3 420.4
M 216.45 428.8
Q 215.3 426.5 214.55 419.25
L 213.8 411.2
Q 213.4 409.65 212.25 410.05 210.7 410.8 209.55 410.8 204.2 412.7 196.55 413.5 175.5 417.3 169.75 416.15 172.05 434.55 172.05 435.35 173.2 434.95 178.95 432.25 184.7 429.95 186.2 431.1
L 191.95 467.95
Q 192.75 474.45 192.75 486.7 200.4 482.9 211.5 483.65 208.05 473.7 202.7 440.7
L 201.9 433.05
Q 201.55 430.35 201.9 429.6 201.9 428.8 204.6 428.45 209.55 427.3 216.45 428.8
M 257.8 468.7
Q 262.05 460.25 260.5 449.15 258.6 437.25 251.7 430.75 244.05 423.85 232.55 426.15 222.6 428.05 218.4 437.25 214.95 444.9 216.45 455.65 218 466.8 224.5 473.7 231.8 481.35 242.5 479.8 253.25 478.3 257.8 468.7
M 247.85 449.9
Q 248.65 455.25 245.95 459.5 242.9 463.7 237.9 463.35 233.7 462.95 231 459.1 228.7 455.25 228.7 451.05 228.35 440.7 237.15 440.3 246.35 439.95 247.85 449.9
M 308.75 396.6
Q 295.35 398.9 291.15 398.55 301.1 436.5 301.5 471 305.7 468.3 317.2 467.55 329.45 465.25 335.55 460.25 347.8 450.3 344.75 427.65 341.3 405.05 326 397.75 319.45 395.1 308.75 396.6
M 310.65 417.7
Q 310.3 414.65 310.65 413.85 311.45 413.1 314.5 412.7 319.1 412.7 321.4 413.85 326.75 416.15 328.65 428.45 332.1 448.75 316.05 451.45 311.45 423.85 310.65 417.7
M 250.55 331.05
Q 259.35 329.5 258.2 320.7 257.05 312.25 247.85 313.4 238.7 314.95 240.2 323.4 241.35 332.2 250.55 331.05
M 257.05 334.9
Q 254.75 336.05 253.6 336.45 249 337.95 243.25 337.95 242.5 338.35 246.35 350.6
L 249 364.05
Q 249.4 368.25 250.55 390.1 252.85 387.8 258.6 387.4 263.95 387.05 267.4 387.8 262.8 370.95 261.65 362.1 259.35 345.25 259.35 336.05 258.95 334.15 257.05 334.9
M 304.55 334.5
Q 301.1 329.9 295.75 329.15 290.75 328.35 286.55 331.45 282.35 334.15 281.2 339.5
L 279.65 331.45
Q 275.05 334.15 265.85 334.15 269.7 346.4 271.6 360.6 272.75 369.4 273.15 387.05 280.4 382.05 290.35 384.35 285.8 369.4 284.65 360.6 283.85 355.6 285.4 351 287.3 345.25 292.3 347.95 295.35 349.85 296.9 356.75 297.65 360.2 298.05 366.7
L 298.05 383.2
Q 301.1 381.3 306.45 380.5 312.2 379.35 314.9 380.9 312.2 370.55 308.35 344.1 307.6 338.75 304.55 334.5
M 209.2 320.3
Q 206.9 321.85 203.05 322.6 198.45 323.4 196.55 323.75 193.1 324.15 193.1 324.9 193.1 325.7 194.25 329.5
L 198.45 352.55
Q 203.05 378.2 203.05 397 205.75 395.1 211.1 394.3 216.45 393.95 219.9 394.7 216.1 382.45 214.55 373.6 211.85 357.15 220.3 357.9 226.8 358.3 227.95 373.6 228.35 381.65 227.95 393.55 230.65 391.65 236 390.5 241.75 389.7 244.8 390.85 240.95 379 240.2 372.85 239.05 360.6 238.3 354.05 236 340.65 225.25 339.1 214.95 337.95 211.1 347.95 209.95 329.5 209.2 320.3
M 158.25 331.45
Q 150.2 332.6 144.85 331.45
L 147.15 351
Q 158.65 344.1 161.35 346.4
L 167.05 383.6
Q 167.85 389.7 167.85 402.35 175.9 397.75 186.6 399.3 183.15 389.35 177.8 356.35
L 177.05 348.3
Q 176.65 345.65 177.05 344.85 177.05 344.1 179.7 343.7 186.6 342.95 191.6 344.5 190.45 341.4 189.65 334.5
L 188.9 326.45
Q 188.5 324.9 187.35 325.3 185.85 326.05 184.7 326.45
L 171.65 329.15
Q 162.85 330.65 158.25 331.45
M 353.15 319.55
L 348.2 323
Q 346.3 324.15 344 323.75 341.7 323.4 339.75 323 333.65 321.85 327.15 324.55 313.35 329.5 316.05 343.35 318.7 356.75 333.25 357.5 331.75 359.8 329.05 359.8 326 359.45 324.05 359.05 321.75 358.65 319.85 362.1 318.7 363.65 317.2 367.1 321.4 366.35 326 367.1 314.5 380.9 324.05 389.35 332.9 397.4 350.1 391.65 357 389.35 360.85 384.35 365.4 378.6 363.5 371.7 360.85 361.75 339.4 360.6 340.55 357.9 342.45 356.75 345.5 356 347.05 354.85 352 351.75 354.3 346.8 358.9 336.8 351.65 328.35 354.3 326.85 361.2 324.15 353.95 319.15 353.15 319.55
M 328.65 342.2
Q 327.9 336.05 334.8 334.9 341.7 334.15 342.85 340.25 343.6 347.95 336.7 348.7 329.8 349.85 328.65 342.2
M 335.95 368.25
L 340.55 368.65
Q 342.45 369 346.3 369.4 349.7 370.15 350.1 373.25 350.85 379.35 342.45 380.5 333.65 382.05 332.9 375.9 332.5 374.4 335.95 368.25
M 392.25 342.95
Q 389.95 341.05 382.65 337.95 378.85 336.8 376.9 334.5 374.6 331.45 379.2 329.5 381.9 328.35 385.35 329.15 387.25 329.9 391.1 331.05
L 387.25 315.35
Q 384.95 316.1 377.3 316.85 370.8 317.25 367.35 319.95 362.35 323.75 362 331.05 361.6 338.75 366.2 343.35 370.4 347.55 381.1 351 383.8 352.15 382.25 354.85 380.75 356.75 378.45 357.15 371.95 358.3 365.4 354.45
L 365.8 362.5
Q 365.8 364.05 365.05 366.7 365.05 369 367.35 369.8 375 372.1 382.25 370.95 390.3 369.8 394.15 364.8 398.35 359.45 397.2 351.75 396.45 346 392.25 342.95 Z"/>
</g>
</defs>

<g transform="matrix( 1, 0, 0, 1, 14.5,0) ">
<g transform="matrix( 1, 0, 0, 1, 0,0) ">
<use xlink:href="#icons_Start_0_Layer8_0_FILL"/>
</g>

<g transform="matrix( 1, 0, 0, 1, 0,0) ">
<use xlink:href="#icons_Start_0_Layer7_0_FILL"/>
</g>

<g transform="matrix( 1, 0, 0, 1, 0,0) ">
<use xlink:href="#icons_Start_0_Layer6_0_FILL"/>
</g>

<g transform="matrix( 1, 0, 0, 1, 0,0) ">
<use xlink:href="#icons_Start_0_Layer5_0_FILL"/>
</g>

<g transform="matrix( 1, 0, 0, 1, 0,0) ">
<use xlink:href="#icons_Start_0_Layer4_0_FILL"/>
</g>

<g transform="matrix( 1, 0, 0, 1, 0,0) ">
<use xlink:href="#icons_Start_0_Layer3_0_FILL"/>
</g>

<g transform="matrix( 1, 0, 0, 1, 0,0) ">
<use xlink:href="#icons_Start_0_Layer2_0_FILL"/>
</g>

<g transform="matrix( 1, 0, 0, 1, 0,0) ">
<use xlink:href="#icons_Start_0_Layer1_0_FILL"/>
</g>

<g transform="matrix( 1, 0, 0, 1, 0,0) ">
<use xlink:href="#icons_Start_0_Layer0_0_FILL"/>
</g>
</g>
</svg>
