
<svg xmlns="http://www.w3.org/2000/svg" version="1.1" xmlns:xlink="http://www.w3.org/1999/xlink" preserveAspectRatio="none" x="0px" y="0px" width="40px" height="40px" viewBox="0 0 40 40">
<Title>Close</Title>
<defs>
<linearGradient id="Gradient_1" gradientUnits="userSpaceOnUse" x1="19.1" y1="2.8874999999999993" x2="19.1" y2="33.212500000000006" spreadMethod="pad">
<stop  offset="0%" stop-color="#FFAA00"/>

<stop  offset="100%" stop-color="#FF5F00"/>
</linearGradient>

<g id="ART_closeBtnIcon_0_Layer0_0_MEMBER_0_FILL">
<path fill="#000000" stroke="none" d="
M 37.65 24.6
L 33 20 37.75 15.5
Q 38.65 14.6 38.25 13.35
L 36.5 8.75
Q 36.45 8.55 36 8
L 28.5 0.6
Q 27.85 0.05 27.1 0.05 26.3 0.05 25.75 0.6
L 19.4 6.6 13.3 0.55
Q 12.75 0 11.9 0 11.05 0 10.5 0.5
L 2.8 7.85
Q 1.8 8.75 2.3 10
L 4.05 14.65
Q 4.2 15.05 4.5 15.35
L 7.3 18.1 0.6 24.4
Q -0.3 25.35 0.1 26.6
L 1.85 31.2
Q 2.05 31.65 2.35 31.9
L 9.8 39.3
Q 10.4 39.9 11.25 39.9 11.95 39.9 12.6 39.35
L 20.85 31.5 28.85 39.4
Q 29.45 40 30.25 40 31.05 40 31.6 39.45
L 39.35 32.1
Q 40.35 31.2 39.85 29.95
L 38.1 25.3
Q 37.95 24.9 37.65 24.6 Z"/>
</g>

<g id="ART_closeBtnIcon_0_Layer0_0_MEMBER_1_FILL">
<path fill="#C82B00" stroke="none" d="
M 11.65 16.7
L 4.15 9.3 5.9 13.9 13.4 21.3 11.65 16.7 Z"/>
</g>

<g id="ART_closeBtnIcon_0_Layer0_0_MEMBER_2_FILL">
<path fill="#961E00" stroke="none" d="
M 34.6 9.45
L 26.85 16.8 28.6 21.4 36.35 14.05 34.6 9.45 Z"/>
</g>

<g id="ART_closeBtnIcon_0_Layer0_0_MEMBER_3_FILL">
<path fill="#961E00" stroke="none" d="
M 19.15 24.1
L 9.5 33.3 11.25 37.9 20.9 28.75 19.15 24.1 Z"/>
</g>

<g id="ART_closeBtnIcon_0_Layer0_0_MEMBER_4_FILL">
<path fill="#C82B00" stroke="none" d="
M 9.5 33.3
L 2 25.85 3.75 30.5 11.25 37.9 9.5 33.3 Z"/>
</g>

<g id="ART_closeBtnIcon_0_Layer0_0_MEMBER_5_FILL">
<path fill="#C82B00" stroke="none" d="
M 28.5 33.35
L 19.15 24.1 20.9 28.75 30.25 38 28.5 33.35 Z"/>
</g>

<g id="ART_closeBtnIcon_0_Layer0_0_MEMBER_6_FILL">
<path fill="#961E00" stroke="none" d="
M 36.25 26.05
L 28.5 33.35 30.25 38 38 30.65 36.25 26.05 Z"/>
</g>

<g id="ART_closeBtnIcon_0_Layer0_0_MEMBER_7_FILL">
<path fill="url(#Gradient_1)" stroke="none" d="
M 34.6 9.45
L 27.1 2.05 19.4 9.4 11.9 2 4.15 9.3 11.65 16.7 2 25.85 9.5 33.3 19.15 24.1 28.5 33.35 36.25 26.05 26.85 16.8 34.6 9.45 Z"/>
</g>
</defs>

<g transform="matrix( 1, 0, 0, 1, 0,0) ">
<g transform="matrix( 1, 0, 0, 1, 0,0) ">
<use xlink:href="#ART_closeBtnIcon_0_Layer0_0_MEMBER_0_FILL"/>
</g>

<g transform="matrix( 1, 0, 0, 1, 0,0) ">
<use xlink:href="#ART_closeBtnIcon_0_Layer0_0_MEMBER_1_FILL"/>
</g>

<g transform="matrix( 1, 0, 0, 1, 0,0) ">
<use xlink:href="#ART_closeBtnIcon_0_Layer0_0_MEMBER_2_FILL"/>
</g>

<g transform="matrix( 1, 0, 0, 1, 0,0) ">
<use xlink:href="#ART_closeBtnIcon_0_Layer0_0_MEMBER_3_FILL"/>
</g>

<g transform="matrix( 1, 0, 0, 1, 0,0) ">
<use xlink:href="#ART_closeBtnIcon_0_Layer0_0_MEMBER_4_FILL"/>
</g>

<g transform="matrix( 1, 0, 0, 1, 0,0) ">
<use xlink:href="#ART_closeBtnIcon_0_Layer0_0_MEMBER_5_FILL"/>
</g>

<g transform="matrix( 1, 0, 0, 1, 0,0) ">
<use xlink:href="#ART_closeBtnIcon_0_Layer0_0_MEMBER_6_FILL"/>
</g>

<g transform="matrix( 1, 0, 0, 1, 0,0) ">
<use xlink:href="#ART_closeBtnIcon_0_Layer0_0_MEMBER_7_FILL"/>
</g>
</g>
</svg>
