
<svg xmlns="http://www.w3.org/2000/svg" version="1.1" xmlns:xlink="http://www.w3.org/1999/xlink" preserveAspectRatio="none" x="0px" y="0px" width="100px" height="144px" viewBox="0 0 100 144">
<defs>
<g id="Layer0_0_FILL">
<path fill="#0000FF" fill-opacity="0.058823529411764705" stroke="none" d="
M 22 4.95
Q 21.25 4.3 20.65 4.15 20.2 3.95 19.4 4 18.25 3.95 17 5.4
L 16.95 5.45 16.05 6.7 16 6.85
Q 15.35 8.05 15.5 8.75
L 15.5 8.85
Q 15.8 10.25 16.7 11.45
L 16.75 11.5 16.8 11.6
Q 15.1 9.65 13.2 9.15 13.9 8.7 14.55 7.95 15.9 6.45 15.95 5.25 16.25 3.05 14.6 1.4 13.15 -0.05 11.75 0 10.4 -0.05 8.9 1.35 7.25 3.05 7.55 5.25 7.7 6.75 8.75 7.95 9.4 8.75 10.35 9.25 9.8 9.35 8.95 9.8
L 8.9 9.8
Q 7.6 10.6 7.05 11.05 7.75 10 7.95 8.9 8.2 8.15 7.5 6.8
L 7.45 6.7 6.5 5.45 6.5 5.4
Q 5.2 3.95 4.05 4 3.25 3.95 2.8 4.15
L 2.75 4.15
Q 2.25 4.25 1.5 4.95 0 6.4 0 8.25
L 0 8.3
Q -0.05 10.7 1.2 12.05
L 1.25 12.1
Q 1.7 12.65 2.65 13.1
L 2.6 13.1
Q 4.1 13.95 4.95 13.25
L 5 13.2 5.2 13.05
Q 3.25 15.5 2.7 17.65 1.95 20.5 3.8 22.5 5.95 25.2 12.2 24.95 17.6 24.8 19.45 22.35 22.05 19.6 18.4 13.8 17.95 13 17.4 12.35
L 18.45 13.2 18.55 13.25
Q 19.45 13.9 20.85 13.1
L 20.8 13.1
Q 21.55 12.75 22.25 12.15
L 22.3 12.05
Q 23.55 10.7 23.45 8.25 23.45 6.4 22 4.95 Z"/>
</g>

<g id="Layer0_1_FILL">
<path fill="#0000FF" fill-opacity="0.058823529411764705" stroke="none" d="
M 47 16.55
Q 46.95 12.75 44 9.95
L 43.95 9.9
Q 42.65 8.7 41.45 8.3
L 41.4 8.3
Q 40.45 7.95 38.9 8
L 38.85 8
Q 36.5 7.95 34 10.85
L 33.95 10.9
Q 32.95 12.15 32.1 13.45
L 32 13.65
Q 30.6 16.35 31.1 17.85 31.55 20 32.85 22.15 31.4 20.9 29.15 19.65
L 29.1 19.6
Q 27.7 18.9 26.25 18.5 28.05 17.65 29.45 15.95 31.5 13.5 31.9 10.55
L 31.9 10.5
Q 32.4 6 29.15 2.75
L 29.15 2.7
Q 26.25 -0.15 23.5 0 20.85 -0.15 17.75 2.8
L 17.75 2.85
Q 14.45 6.05 15.05 10.55 15.3 13.1 17.85 15.9 19.3 17.5 20.6 18.3 16.9 19.2 13.35 23.2
L 13.5 23 13.55 22.95
Q 15.4 20.5 15.95 17.75
L 15.95 17.55
Q 16.25 16.15 15 13.7
L 14.9 13.45
Q 14.1 12.15 13.05 10.9
L 13 10.85
Q 10.55 7.95 8.15 8
L 8.1 8
Q 6.5 7.9 5.65 8.3 4.25 8.7 2.95 9.95 0.1 12.7 0 16.55 -0.05 21.5 2.35 24.15
L 2.45 24.3
Q 3.55 25.4 5.35 26.25
L 5.2 26.2
Q 8.1 27.85 9.85 26.55
L 10 26.45
Q 11.2 25.65 12.15 24.7 11.15 25.95 10.1 27.6 2.85 39.3 8.05 44.8 11.7 49.75 22.55 49.95
L 22.6 49.95
Q 34.95 50.5 39.4 45.05 43.1 40.95 41.55 35.3 40.55 31.2 36.55 26.15
L 37 26.45 37.1 26.5
Q 38.7234375 27.8775390625 41.7 26.25 41.749609375 26.223828125 41.8 26.2 43.5275390625 25.27109375 44.5 24.25
L 44.55 24.15
Q 47.1 21.45 47 16.6
L 47 16.55 Z"/>
</g>

<g id="Layer0_2_FILL">
<path fill="#0000FF" fill-opacity="0.058823529411764705" stroke="none" d="
M 33 7.45
L 32.95 7.4
Q 32 6.5 31.05 6.2 30.15 5.95 29.15 6
L 29.1 6
Q 27.35 5.95 25.5 8.15
L 25.45 8.15 24.05 10.1 24 10.25
Q 22.95 12.3 23.3 13.4 23.7 15.05 24.65 16.6 23.5 15.65 21.85 14.75
L 21.8 14.7
Q 20.9 14.2 19.7 13.85 20.95 13.25 22.1 11.95 23.7 10.1 23.9 7.9
L 23.9 7.85
Q 24.35 4.55 21.85 2.05
L 21.85 2
Q 19.7 -0.1 17.6 0 15.6 -0.05 13.3 2.1
L 13.3 2.15
Q 10.85 4.55 11.3 7.9 11.45 9.9 13.4 11.9 14.5 13.15 15.45 13.7 12.65 14.4 10 17.4
L 10.1 17.25 10.15 17.2
Q 11.6 15.35 11.95 13.3
L 11.95 13.15
Q 12.2 12.1 11.25 10.25
L 11.15 10.1
Q 10.65 9.2 9.8 8.15
L 9.75 8.15
Q 7.9 5.95 6.1 6
L 6.05 6
Q 5 5.95 4.25 6.2 3.15 6.5 2.2 7.45 0.1 9.5 0 12.4 -0.05 16.15 1.75 18.1
L 1.85 18.2
Q 2.478515625 18.8767578125 3.9 19.65 3.949609375 19.6771484375 4 19.7 6.129296875 20.828515625 7.4 19.9
L 7.5 19.85
Q 8.4 19.2 9.1 18.5 8.15 19.7 7.55 20.7 2.15 29.5 6.05 33.6 8.75 37.3 16.9 37.45
L 16.95 37.45
Q 26.25 37.85 29.55 33.75 32.35 30.65 31.15 26.45 30.4 23.4 27.4 19.6
L 27.75 19.85 27.8 19.85
Q 28.9748046875 20.926953125 31.25 19.7 31.299609375 19.6734375 31.35 19.65 32.6748046875 18.9234375 33.35 18.2
L 33.4 18.1
Q 35.25 16.2 35.25 12.45
L 35.25 12.4
Q 35.2 9.55 33 7.45 Z"/>
</g>

<g id="Layer0_3_FILL">
<path fill="#0000FF" fill-opacity="0.058823529411764705" stroke="none" d="
M 11 2.45
Q 10.7 2.15 10.3 2.05 10.05 1.95 9.7 2 9.1 1.95 8.5 2.7
L 8.45 2.7 8 3.35 8 3.4
Q 7.65 3.95 7.75 4.35
L 7.75 4.4
Q 7.9 5.1 8.35 5.7
L 8.4 5.8
Q 7.55 4.8 6.6 4.55
L 7.25 3.95
Q 7.95 3.25 7.95 2.6 8.1 1.5 7.3 0.7 6.55 -0.05 5.85 0 5.25 -0.05 4.45 0.65 3.6 1.5 3.75 2.6 3.85 3.35 4.35 3.95 4.65 4.3 5.15 4.6
L 4.45 4.9 3.5 5.5
Q 3.9 5 3.95 4.45 4.1 4.15 3.75 3.4
L 3.7 3.35 3.25 2.7
Q 2.55 1.95 2 2 1.7 1.95 1.4 2.05
L 1.35 2.05
Q 1.1 2.1 0.75 2.45 0 3.2 0 4.1
L 0 4.15
Q -0.05 5.35 0.6 6
L 0.6 6.05
Q 1.2 6.5 1.3 6.55 2.1 6.95 2.45 6.6
L 2.5 6.6 2.6 6.5
Q 1.6 7.75 1.35 8.8 0.95 10.25 1.9 11.25 2.95 12.6 6.1 12.45 8.85 12.4 9.7 11.15 11.05 9.8 9.2 6.9
L 8.7 6.15 9.25 6.6
Q 9.7 6.9 10.45 6.55
L 10.4 6.55
Q 10.9 6.3 11.1 6.05
L 11.15 6
Q 11.75 5.35 11.75 4.1 11.65 3.1 11 2.45 Z"/>
</g>

<g id="Layer0_4_FILL">
<path fill="#0000FF" fill-opacity="0.058823529411764705" stroke="none" d="
M 22.05 5
Q 21.45 4.4 20.7 4.15 20.25 4 19.45 4 18.25 4 17 5.45 16.55 5.95 16.05 6.75
L 16 6.85
Q 15.4 8.15 15.55 8.8
L 15.55 8.9
Q 15.75 10.2 16.75 11.5 14.953125 9.58828125 13.2 9.15 13.85 8.8 14.6 7.95 15.85 6.65 16 5.3 16.3 3.05 14.65 1.45
L 14.65 1.4
Q 13.05 -0.05 11.75 0 10.4 -0.05 8.95 1.35
L 8.95 1.4
Q 7.3 2.95 7.55 5.25
L 7.55 5.3
Q 7.8 6.75 8.8 8 9.55 8.9 10.4 9.25 9.35 9.6 8.95 9.8
L 8.95 9.85
Q 7.9 10.4 7.1 11.1 7.7 10 7.95 8.95 8.25 8.2 7.5 6.85
L 7.45 6.75 6.55 5.45 6.5 5.45
Q 5.35 4 4.1 4
L 4.05 4
Q 3.35 4 2.8 4.15 2.1 4.4 1.55 4.95
L 1.5 5
Q 0.1 6.35 0 8.3 0 10.8 1.25 12.1
L 1.25 12.15
Q 1.75 12.65 2.65 13.15
L 2.6 13.1
Q 4.15 14 4.95 13.25
L 5 13.25 5.25 13.1
Q 3.2 15.7 2.75 17.65 1.95 20.4 3.8 22.5 6.1 25.25 12.2 24.95
L 12.25 24.95
Q 17.65 24.9 19.5 22.4 22.1 19.65 18.45 13.8
L 17.45 12.35
Q 17.8 12.75 18.5 13.25
L 18.6 13.3
Q 19.45 13.95 20.9 13.1
L 20.85 13.15
Q 21.85 12.6 22.3 12.15
L 22.35 12.1
Q 23.6 10.7 23.5 8.3 23.5 6.4 22.05 5 Z"/>
</g>

<g id="Layer0_5_FILL">
<path fill="#0000FF" fill-opacity="0.058823529411764705" stroke="none" d="
M 33 7.5
L 32.95 7.45
Q 32.1 6.6 31.1 6.25
L 31.05 6.25
Q 30.45 6 29.2 6
L 29.15 6
Q 27.35 6 25.5 8.15
L 25.45 8.2
Q 24.65 9.1 24.1 10.1
L 24 10.25
Q 22.9 12.35 23.35 13.4 23.65 15.05 24.65 16.65 23.45 15.6 21.85 14.75
L 21.85 14.7
Q 21 14.3 19.7 13.9 21.05 13.25 22.1 12 23.65 10.15 23.95 7.95
L 23.95 7.9
Q 24.35 4.5 21.85 2.1
L 21.85 2.05
Q 19.65 -0.05 17.65 0 15.65 -0.05 13.3 2.1
L 13.3 2.15
Q 10.85 4.55 11.3 7.95 11.45 9.85 13.4 11.95 14.4 13.1 15.45 13.75 12.849609375 14.3759765625 10.2 17.15 11.6064453125 15.3623046875 11.95 13.35
L 11.95 13.2
Q 12.2 12.1 11.25 10.3
L 11.2 10.1
Q 10.45 8.95 9.8 8.2
L 9.75 8.15
Q 7.9 6 6.15 6
L 6.1 6
Q 4.75 6 4.25 6.25 3.1 6.6 2.25 7.5 0.1 9.45 0 12.45 0 16.2 1.8 18.15
L 1.85 18.25
Q 2.7 19.1 4.05 19.7
L 3.9 19.65
Q 6.1 20.9 7.4 19.95
L 7.5 19.85
Q 8.5 19.2 9.1 18.55 8.15 19.8 7.6 20.7 2.1 29.5 6.05 33.6 8.8 37.3 16.9 37.45
L 16.95 37.45
Q 26.2 37.9 29.55 33.8 32.35 30.7 31.15 26.5 30.5 23.5 27.4 19.65
L 27.85 19.9
Q 29.1 20.95 31.35 19.65
L 31.3 19.7
Q 32.6 19.05 33.4 18.2
L 33.4 18.15
Q 35.35 16.05 35.25 12.45 35.2 9.55 33 7.5 Z"/>
</g>

<g id="Layer0_6_FILL">
<path fill="#0000FF" fill-opacity="0.058823529411764705" stroke="none" d="
M 11 2.5
Q 10.65 2.15 10.35 2.1 10.2 2 9.75 2
L 9.7 2
Q 9.1 2 8.5 2.7
L 8.5 2.75 8.05 3.35 8 3.45
Q 7.7 4 7.8 4.4
L 7.8 4.45
Q 7.8869140625 5.0154296875 8.25 5.55 7.4400390625 4.776953125 6.6 4.6
L 7.3 4
Q 7.9 3.3 8 2.65 8.15 1.5 7.35 0.7 6.6 0 5.9 0 5.15 0 4.5 0.7 3.65 1.55 3.8 2.65 3.9 3.4 4.4 4 4.75 4.45 5.2 4.65
L 4.5 4.9 3.55 5.55
Q 3.85 5 4 4.45 4.15 4.1 3.75 3.4
L 3.75 3.35 3.3 2.75 3.25 2.7
Q 2.65 2 2.05 2 1.6 2 1.4 2.1 1.15 2.15 0.8 2.5
L 0.75 2.5
Q 0.1 3.2 0 4.15 0 5.4 0.65 6.05 0.85 6.3 1.35 6.55
L 1.3 6.55
Q 2.05 6.95 2.5 6.65
L 2.5 6.6 2.65 6.55
Q 1.65 7.8 1.4 8.85 0.95 10.25 1.9 11.25 3.05 12.65 6.1 12.5
L 6.15 12.5
Q 8.9 12.45 9.75 11.2 11.05 9.85 9.25 6.9
L 8.75 6.2 9.25 6.6 9.3 6.65
Q 9.75 6.95 10.45 6.55
L 10.4 6.55
Q 10.65 6.45 11.15 6.1
L 11.15 6.05
Q 11.75 5.45 11.75 4.15 11.75 3.2 11 2.5 Z"/>
</g>

<g id="Layer0_7_FILL">
<path fill="#0000FF" fill-opacity="0.058823529411764705" stroke="none" d="
M 44.05 9.95
Q 42.8 8.7 41.35 8.3 40.5 7.9 38.9 8
L 38.85 8
Q 36.5 7.95 34 10.85
L 33.95 10.9
Q 32.95 12.15 32.1 13.45
L 32 13.7
Q 30.75 16.15 31.05 17.55
L 31.05 17.75
Q 31.6 20.5 33.45 22.95
L 33.5 23 33.65 23.2
Q 30.1 19.2 26.4 18.3 27.7 17.5 29.15 15.9 31.75 13.1 31.95 10.55 32.55 6.05 29.25 2.85
L 29.25 2.8
Q 26.15 -0.15 23.5 0 20.8 -0.15 17.85 2.7
L 17.85 2.75
Q 14.6 6 15.1 10.5
L 15.1 10.55
Q 15.5 13.5 17.55 15.95 18.95 17.65 20.75 18.5 19.3 18.9 17.9 19.6
L 17.85 19.65
Q 15.6 20.9 14.15 22.15 15.45 20 15.9 17.85 16.45 16.35 15 13.65
L 14.9 13.45
Q 14.1 12.15 13.05 10.9
L 13 10.85
Q 10.55 7.95 8.15 8
L 8.1 8
Q 6.55 7.95 5.6 8.3
L 5.55 8.3
Q 4.35 8.7 3.05 9.9
L 3 9.95
Q 0.1 12.75 0 16.55
L 0 16.6
Q -0.05 21.45 2.45 24.15
L 2.5 24.25
Q 3.4724609375 25.27109375 5.2 26.2 5.250390625 26.223828125 5.3 26.25 8.2765625 27.8775390625 9.9 26.5
L 10 26.45 10.45 26.15
Q 6.45 31.2 5.45 35.3 3.9 40.95 7.6 45.05 12.1 50.45 24.4 49.95
L 24.45 49.95
Q 35.3 49.75 38.95 44.8 44.15 39.3 36.9 27.6 35.9 25.95 34.85 24.7 35.8 25.65 37 26.45
L 37.15 26.55
Q 38.9 27.85 41.8 26.2
L 41.65 26.25
Q 43.45 25.4 44.55 24.3
L 44.65 24.15
Q 47.1 21.5 47 16.55 46.95 12.7 44.05 9.95 Z"/>
</g>
</defs>

<g transform="matrix( 1, 0, 0, 1, 30.6,0.4) ">
<use xlink:href="#Layer0_0_FILL"/>
</g>

<g transform="matrix( 1, 0, 0, 1, 0.75,23.6) ">
<use xlink:href="#Layer0_1_FILL"/>
</g>

<g transform="matrix( 1, 0, 0, 1, 52.1,17) ">
<use xlink:href="#Layer0_2_FILL"/>
</g>

<g transform="matrix( 1, 0, 0, 1, 83.95,74.25) ">
<use xlink:href="#Layer0_3_FILL"/>
</g>

<g transform="matrix( 1, 0, 0, 1, 50.55,60.35) ">
<use xlink:href="#Layer0_4_FILL"/>
</g>

<g transform="matrix( 1, 0, 0, 1, 12.1,79.95) ">
<use xlink:href="#Layer0_5_FILL"/>
</g>

<g transform="matrix( 1, 0, 0, 1, 8.95,4.25) ">
<use xlink:href="#Layer0_6_FILL"/>
</g>

<g transform="matrix( 1, 0, 0, 1, 52.3,93.6) ">
<use xlink:href="#Layer0_7_FILL"/>
</g>
</svg>
