<?xml version="1.0" encoding="utf-8"?>
<!-- Generator: Adobe Illustrator 16.0.0, SVG Export Plug-In . SVG Version: 6.00 Build 0)  -->
<!DOCTYPE svg PUBLIC "-//W3C//DTD SVG 1.1//EN" "http://www.w3.org/Graphics/SVG/1.1/DTD/svg11.dtd">
<svg version="1.1" id="Layer_1" xmlns="http://www.w3.org/2000/svg" xmlns:xlink="http://www.w3.org/1999/xlink" x="0px" y="0px"
	 width="1920px" height="1080px" viewBox="0 0 1920 1080" enable-background="new 0 0 1920 1080" xml:space="preserve">
<g id="BG">
	<g>
		<g>
			<g>
				
					<linearGradient id="SVGID_1_" gradientUnits="userSpaceOnUse" x1="3326.0078" y1="830" x2="3870.5059" y2="830" gradientTransform="matrix(-1 0 0 -1 5246.0078 1370)">
					<stop  offset="0" style="stop-color:#3774C5"/>
					<stop  offset="1" style="stop-color:#1D317A"/>
				</linearGradient>
				<rect x="1375.502" fill="url(#SVGID_1_)" width="544.498" height="1080"/>
				<rect x="1616.002" fill="#3774C5" width="303.998" height="204"/>
				<rect x="1656.002" fill="#1E294C" width="263.998" height="164"/>
				<g>
					<g>
						
							<linearGradient id="SVGID_2_" gradientUnits="userSpaceOnUse" x1="3458.0068" y1="1348" x2="3458.0068" y2="1287.8668" gradientTransform="matrix(-1 0 0 -1 5246.0078 1370)">
							<stop  offset="0" style="stop-color:#384EA3"/>
							<stop  offset="1" style="stop-color:#1D317A"/>
						</linearGradient>
						<polygon fill="url(#SVGID_2_)" points="1920,22 1920,41.5 1913,52 1656.002,52 1656.002,22 						"/>
						
							<linearGradient id="SVGID_3_" gradientUnits="userSpaceOnUse" x1="3400.5068" y1="1348" x2="3400.5068" y2="1287.8668" gradientTransform="matrix(-1 0 0 -1 5246.0078 1370)">
							<stop  offset="0" style="stop-color:#384EA3"/>
							<stop  offset="1" style="stop-color:#1D317A"/>
						</linearGradient>
						<polygon fill="url(#SVGID_3_)" points="1771.002,82 1920,82 1920,52 1791.002,52 						"/>
					</g>
					<g>
						
							<linearGradient id="SVGID_4_" gradientUnits="userSpaceOnUse" x1="3522.5059" y1="1317" x2="3522.5059" y2="1256.8668" gradientTransform="matrix(-1 0 0 -1 5246.0078 1370)">
							<stop  offset="0" style="stop-color:#3774C5"/>
							<stop  offset="1" style="stop-color:#384EA3"/>
						</linearGradient>
						<polygon fill="url(#SVGID_4_)" points="1656.002,82 1771.002,82 1791.002,52 1656.002,52 						"/>
						
							<linearGradient id="SVGID_5_" gradientUnits="userSpaceOnUse" x1="3428.0068" y1="1317" x2="3428.0068" y2="1256.8668" gradientTransform="matrix(-1 0 0 -1 5246.0078 1370)">
							<stop  offset="0" style="stop-color:#3774C5"/>
							<stop  offset="1" style="stop-color:#384EA3"/>
						</linearGradient>
						<polygon fill="url(#SVGID_5_)" points="1716.002,112 1920,112 1920,82 1736.002,82 						"/>
					</g>
					<g>
						
							<linearGradient id="SVGID_6_" gradientUnits="userSpaceOnUse" x1="3550.0059" y1="1288" x2="3550.0059" y2="1228" gradientTransform="matrix(-1 0 0 -1 5246.0078 1370)">
							<stop  offset="0" style="stop-color:#384EA3"/>
							<stop  offset="1" style="stop-color:#1D317A"/>
						</linearGradient>
						<polygon fill="url(#SVGID_6_)" points="1656.002,112 1716.002,112 1736.002,82 1656.002,82 						"/>
						
							<linearGradient id="SVGID_7_" gradientUnits="userSpaceOnUse" x1="3455.0068" y1="1288" x2="3455.0068" y2="1228" gradientTransform="matrix(-1 0 0 -1 5246.0078 1370)">
							<stop  offset="0" style="stop-color:#384EA3"/>
							<stop  offset="1" style="stop-color:#1D317A"/>
						</linearGradient>
						<polygon fill="url(#SVGID_7_)" points="1662.002,142 1920,142 1920,112 1682.002,112 						"/>
					</g>
				</g>
				<polygon fill="#299EED" points="1616.002,204 1920,204 1920,228 1534.002,228 				"/>
				<g>
					<rect x="1618.002" y="896" fill="#3062B3" width="301.998" height="184"/>
					<rect x="1628.002" y="896" fill="#3774C5" width="291.998" height="184"/>
					<rect x="1579.002" y="865" fill="#3774C5" width="2" height="215"/>
					<path fill="#299EED" d="M1618.738,901.597c1.887,2.537,5.094,4.403,8.256,4.403H1920v-46h-335.111
						c-3.729,0-6.022,3.945-3.887,7L1618.738,901.597"/>
				</g>
				<polygon fill="#4FB2ED" points="1590.002,860 1920,860 1920,228 1534.002,228 				"/>
				
					<radialGradient id="SVGID_8_" cx="3447.335" cy="702" r="449.3799" gradientTransform="matrix(-1 0 0 -1 5246.0078 1370)" gradientUnits="userSpaceOnUse">
					<stop  offset="0" style="stop-color:#1D317A"/>
					<stop  offset="1" style="stop-color:#1E294C"/>
				</radialGradient>
				<polygon fill="url(#SVGID_8_)" points="1639.002,839 1920,839 1920,239 1559.002,239 				"/>
			</g>
		</g>
		<g>
			
				<linearGradient id="SVGID_9_" gradientUnits="userSpaceOnUse" x1="0" y1="830" x2="544.498" y2="830" gradientTransform="matrix(1 0 0 -1 0 1370)">
				<stop  offset="0" style="stop-color:#3774C5"/>
				<stop  offset="1" style="stop-color:#1D317A"/>
			</linearGradient>
			<polygon fill="url(#SVGID_9_)" points="0,0 544.498,0 544.498,1080 1,1080 			"/>
			<rect fill="#3774C5" width="303.998" height="204"/>
			<rect fill="#1E294C" width="263.998" height="164"/>
			<g>
				<g>
					
						<linearGradient id="SVGID_10_" gradientUnits="userSpaceOnUse" x1="131.999" y1="1348" x2="131.999" y2="1287.8668" gradientTransform="matrix(1 0 0 -1 0 1370)">
						<stop  offset="0" style="stop-color:#384EA3"/>
						<stop  offset="1" style="stop-color:#1D317A"/>
					</linearGradient>
					<polygon fill="url(#SVGID_10_)" points="0,22 0,41.5 7,52 263.998,52 263.998,22 					"/>
					
						<linearGradient id="SVGID_11_" gradientUnits="userSpaceOnUse" x1="74.499" y1="1348" x2="74.499" y2="1287.8668" gradientTransform="matrix(1 0 0 -1 0 1370)">
						<stop  offset="0" style="stop-color:#384EA3"/>
						<stop  offset="1" style="stop-color:#1D317A"/>
					</linearGradient>
					<polygon fill="url(#SVGID_11_)" points="148.998,82 0,82 0,52 128.998,52 					"/>
				</g>
				<g>
					
						<linearGradient id="SVGID_12_" gradientUnits="userSpaceOnUse" x1="196.498" y1="1317" x2="196.498" y2="1256.8668" gradientTransform="matrix(1 0 0 -1 0 1370)">
						<stop  offset="0" style="stop-color:#3774C5"/>
						<stop  offset="1" style="stop-color:#384EA3"/>
					</linearGradient>
					<polygon fill="url(#SVGID_12_)" points="263.998,82 148.998,82 128.998,52 263.998,52 					"/>
					
						<linearGradient id="SVGID_13_" gradientUnits="userSpaceOnUse" x1="101.999" y1="1317" x2="101.999" y2="1256.8668" gradientTransform="matrix(1 0 0 -1 0 1370)">
						<stop  offset="0" style="stop-color:#3774C5"/>
						<stop  offset="1" style="stop-color:#384EA3"/>
					</linearGradient>
					<polygon fill="url(#SVGID_13_)" points="203.998,112 0,112 0,82 183.998,82 					"/>
				</g>
				<g>
					
						<linearGradient id="SVGID_14_" gradientUnits="userSpaceOnUse" x1="223.998" y1="1288" x2="223.998" y2="1228" gradientTransform="matrix(1 0 0 -1 0 1370)">
						<stop  offset="0" style="stop-color:#384EA3"/>
						<stop  offset="1" style="stop-color:#1D317A"/>
					</linearGradient>
					<polygon fill="url(#SVGID_14_)" points="263.998,112 203.998,112 183.998,82 263.998,82 					"/>
					
						<linearGradient id="SVGID_15_" gradientUnits="userSpaceOnUse" x1="128.999" y1="1288" x2="128.999" y2="1228" gradientTransform="matrix(1 0 0 -1 0 1370)">
						<stop  offset="0" style="stop-color:#384EA3"/>
						<stop  offset="1" style="stop-color:#1D317A"/>
					</linearGradient>
					<polygon fill="url(#SVGID_15_)" points="257.998,142 0,142 0,112 237.998,112 					"/>
				</g>
			</g>
			<polygon fill="#299EED" points="303.998,204 0,204 0,228 385.998,228 			"/>
			<g>
				<rect x="1" y="896" fill="#3062B3" width="300.998" height="184"/>
				<rect x="1" y="896" fill="#3774C5" width="290.998" height="184"/>
				<rect x="338.998" y="865" fill="#3774C5" width="2" height="215"/>
				<path fill="#299EED" d="M301.262,901.597c-1.887,2.537-5.095,4.403-8.257,4.403H1v-46h334.11c3.729,0,6.024,3.945,3.888,7
					L301.262,901.597"/>
			</g>
			<polygon fill="#4FB2ED" points="329.998,860 1,860 0,228 385.998,228 			"/>
			
				<radialGradient id="SVGID_16_" cx="121.3267" cy="702" r="449.3802" gradientTransform="matrix(1 0 0 -1 0 1370)" gradientUnits="userSpaceOnUse">
				<stop  offset="0" style="stop-color:#1D317A"/>
				<stop  offset="1" style="stop-color:#1E294C"/>
			</radialGradient>
			<polygon fill="url(#SVGID_16_)" points="280.998,839 0,839 0,239 360.998,239 			"/>
		</g>
		<g>
			<path fill="#1D317A" d="M453.998,1080V906c-0.005-4.553,1.196-9.06,3.475-13.017l0.181-0.311l22.938-36.031
				c3.379-5.644,8.756-9.729,14.918-11.564l21.189-608.715l-35.699-23.799V0h958v212.819l-37.662,23.786l23.106,608.458
				c6.182,1.828,11.573,5.927,14.964,11.581l22.938,36.031l0.181,0.311c2.277,3.96,3.479,8.47,3.474,13.044l0.001,173.972
				L453.998,1080L453.998,1080z"/>
			<path fill="#FFFFFF" d="M465.998,1080V906c-0.003-2.463,0.645-4.894,1.874-7.027l0.092-0.149l22.853-35.894
				c2.503-4.273,7.117-6.93,12.069-6.93h4.249l21.788-625.909l-35.925-23.95V0h934v206.205l-37.915,23.947L1412.849,856h4.265
				c4.952,0,9.566,2.653,12.069,6.93l22.897,35.967l0.044,0.076c1.229,2.138,1.877,4.567,1.873,7.034l0.001,173.993H465.998z"/>
			<rect x="496.998" fill="#3774C5" width="926" height="204"/>
			
				<radialGradient id="SVGID_17_" cx="964.998" cy="1288" r="408.2552" gradientTransform="matrix(1 0 0 -1 0 1370)" gradientUnits="userSpaceOnUse">
				<stop  offset="0" style="stop-color:#1D317A"/>
				<stop  offset="1" style="stop-color:#1E294C"/>
			</radialGradient>
			<rect x="546.998" fill="url(#SVGID_17_)" width="836" height="164"/>
			<rect x="1369.998" fill="#299EED" width="13" height="164"/>
			<rect x="546.998" fill="#299EED" width="13" height="164"/>
			<polygon fill="#299EED" points="1422.998,204 496.998,204 532.998,228 1384.998,228 			"/>
			<rect x="469.998" y="906" fill="#3774C5" width="980" height="174"/>
			<path fill="#299EED" d="M479.991,916c-3.57,0-6.87-1.91-8.655-5.011c-1.784-3.104-1.784-6.921,0.002-10.021l22.896-35.961
				c1.782-3.099,5.084-5.008,8.65-5.008h914.228c3.566,0,6.868,1.909,8.65,5.008l22.896,35.961c1.786,3.103,1.787,6.92,0.002,10.021
				c-1.786,3.101-5.085,5.011-8.655,5.011H479.991z"/>
			<polygon fill="#4FB2ED" points="1408.998,860 510.998,860 532.998,228 1384.998,228 			"/>
			<g>
				<g>
					
						<linearGradient id="SVGID_18_" gradientUnits="userSpaceOnUse" x1="661.998" y1="1348" x2="661.998" y2="1287.8668" gradientTransform="matrix(1 0 0 -1 0 1370)">
						<stop  offset="0" style="stop-color:#384EA3"/>
						<stop  offset="1" style="stop-color:#1D317A"/>
					</linearGradient>
					<polygon fill="url(#SVGID_18_)" points="743.998,52 559.998,52 559.998,22 763.998,22 					"/>
					
						<linearGradient id="SVGID_19_" gradientUnits="userSpaceOnUse" x1="1267.998" y1="1348" x2="1267.998" y2="1287.8668" gradientTransform="matrix(1 0 0 -1 0 1370)">
						<stop  offset="0" style="stop-color:#384EA3"/>
						<stop  offset="1" style="stop-color:#1D317A"/>
					</linearGradient>
					<polygon fill="url(#SVGID_19_)" points="1369.998,52 1185.998,52 1165.998,22 1369.998,22 					"/>
					
						<linearGradient id="SVGID_20_" gradientUnits="userSpaceOnUse" x1="964.998" y1="1348" x2="964.998" y2="1287.8668" gradientTransform="matrix(1 0 0 -1 0 1370)">
						<stop  offset="0" style="stop-color:#384EA3"/>
						<stop  offset="1" style="stop-color:#1D317A"/>
					</linearGradient>
					<polygon fill="url(#SVGID_20_)" points="1234.998,82 694.998,82 714.998,52 1214.998,52 					"/>
				</g>
				<g>
					
						<linearGradient id="SVGID_21_" gradientUnits="userSpaceOnUse" x1="637.498" y1="1317" x2="637.498" y2="1256.8668" gradientTransform="matrix(1 0 0 -1 0 1370)">
						<stop  offset="0" style="stop-color:#3774C5"/>
						<stop  offset="1" style="stop-color:#384EA3"/>
					</linearGradient>
					<polygon fill="url(#SVGID_21_)" points="694.998,82 559.998,82 559.998,52 714.998,52 					"/>
					
						<linearGradient id="SVGID_22_" gradientUnits="userSpaceOnUse" x1="1292.498" y1="1317" x2="1292.498" y2="1256.8668" gradientTransform="matrix(1 0 0 -1 0 1370)">
						<stop  offset="0" style="stop-color:#3774C5"/>
						<stop  offset="1" style="stop-color:#384EA3"/>
					</linearGradient>
					<polygon fill="url(#SVGID_22_)" points="1369.998,82 1234.998,82 1214.998,52 1369.998,52 					"/>
					
						<linearGradient id="SVGID_23_" gradientUnits="userSpaceOnUse" x1="964.998" y1="1317" x2="964.998" y2="1256.8668" gradientTransform="matrix(1 0 0 -1 0 1370)">
						<stop  offset="0" style="stop-color:#3774C5"/>
						<stop  offset="1" style="stop-color:#384EA3"/>
					</linearGradient>
					<polygon fill="url(#SVGID_23_)" points="1289.998,112 639.998,112 659.998,82 1269.998,82 					"/>
				</g>
				<g>
					
						<linearGradient id="SVGID_24_" gradientUnits="userSpaceOnUse" x1="609.998" y1="1288" x2="609.998" y2="1228" gradientTransform="matrix(1 0 0 -1 0 1370)">
						<stop  offset="0" style="stop-color:#384EA3"/>
						<stop  offset="1" style="stop-color:#1D317A"/>
					</linearGradient>
					<polygon fill="url(#SVGID_24_)" points="639.998,112 559.998,112 559.998,82 659.998,82 					"/>
					
						<linearGradient id="SVGID_25_" gradientUnits="userSpaceOnUse" x1="1319.998" y1="1288" x2="1319.998" y2="1228" gradientTransform="matrix(1 0 0 -1 0 1370)">
						<stop  offset="0" style="stop-color:#384EA3"/>
						<stop  offset="1" style="stop-color:#1D317A"/>
					</linearGradient>
					<polygon fill="url(#SVGID_25_)" points="1369.998,112 1289.998,112 1269.998,82 1369.998,82 					"/>
					
						<linearGradient id="SVGID_26_" gradientUnits="userSpaceOnUse" x1="964.998" y1="1288" x2="964.998" y2="1228" gradientTransform="matrix(1 0 0 -1 0 1370)">
						<stop  offset="0" style="stop-color:#384EA3"/>
						<stop  offset="1" style="stop-color:#1D317A"/>
					</linearGradient>
					<polygon fill="url(#SVGID_26_)" points="1343.998,142 585.998,142 605.998,112 1323.998,112 					"/>
				</g>
			</g>
			<g>
				<path fill="#1D317A" d="M806.336,135c-0.676,0-1.354-0.114-2.01-0.347l-23.331-8.295l-23.325,8.295
					c-0.654,0.232-1.334,0.347-2.01,0.347c-1.25,0-2.488-0.391-3.527-1.146c-1.601-1.163-2.522-3.041-2.471-5.019l0.677-24.756
					l-15.097-19.626c-1.206-1.568-1.563-3.63-0.951-5.512c0.611-1.882,2.111-3.341,4.009-3.901l23.75-7.006l13.995-20.425
					c1.119-1.633,2.97-2.609,4.949-2.609c1.979,0,3.832,0.976,4.95,2.608l13.999,20.426l23.752,7.006
					c1.896,0.56,3.396,2.02,4.01,3.901c0.612,1.881,0.255,3.944-0.951,5.513l-15.102,19.625l0.682,24.755
					c0.055,1.979-0.869,3.856-2.471,5.02C808.824,134.609,807.586,135,806.336,135z"/>
				
					<linearGradient id="SVGID_27_" gradientUnits="userSpaceOnUse" x1="780.998" y1="1252" x2="780.998" y2="1314.514" gradientTransform="matrix(1 0 0 -1 0 1370)">
					<stop  offset="0" style="stop-color:#3774C5"/>
					<stop  offset="1" style="stop-color:#384EA3"/>
				</linearGradient>
				<polygon fill="url(#SVGID_27_)" points="780.995,117.99 755.66,127 756.395,100.112 739.998,78.795 765.794,71.186 780.995,49 
					796.2,71.186 821.998,78.795 805.596,100.112 806.336,127 				"/>
			</g>
			<g>
				<path fill="#1D317A" d="M1172.336,135c-0.676,0-1.354-0.114-2.01-0.347l-23.331-8.295l-23.325,8.295
					c-0.654,0.232-1.334,0.347-2.01,0.347c-1.25,0-2.488-0.391-3.527-1.146c-1.601-1.163-2.522-3.041-2.471-5.019l0.678-24.756
					l-15.098-19.626c-1.206-1.568-1.563-3.63-0.951-5.512c0.612-1.882,2.111-3.341,4.01-3.901l23.75-7.006l13.994-20.425
					c1.119-1.633,2.971-2.609,4.949-2.609c1.978,0,3.832,0.976,4.95,2.608l13.999,20.426l23.752,7.006
					c1.896,0.56,3.396,2.02,4.01,3.901c0.612,1.881,0.255,3.944-0.951,5.513l-15.102,19.625l0.682,24.755
					c0.055,1.979-0.869,3.856-2.471,5.02C1174.824,134.609,1173.586,135,1172.336,135z"/>
				
					<linearGradient id="SVGID_28_" gradientUnits="userSpaceOnUse" x1="1146.998" y1="1252" x2="1146.998" y2="1314.514" gradientTransform="matrix(1 0 0 -1 0 1370)">
					<stop  offset="0" style="stop-color:#3774C5"/>
					<stop  offset="1" style="stop-color:#384EA3"/>
				</linearGradient>
				<polygon fill="url(#SVGID_28_)" points="1146.995,117.99 1121.66,127 1122.395,100.112 1105.998,78.795 1131.795,71.186 
					1146.995,49 1162.2,71.186 1187.998,78.795 1171.596,100.112 1172.336,127 				"/>
			</g>
			<g>
				<g>
					<path fill="#1D317A" d="M924.425,147.204c-3.937,0-7.81-0.187-11.515-0.554c-15.017-0.481-28.146-4.087-37.982-10.433
						c-10.356-6.689-16.688-16.041-18.304-27.046c-1.577-10.759,1.46-22.848,8.783-34.962c7.103-11.741,18.033-23.154,31.617-33.017
						c9.581-7.72,20.475-14.666,32.384-20.647c0.098-0.049,0.197-0.096,0.299-0.139c13.159-5.73,26.619-9.842,40.004-12.223
						c0.297-0.053,0.597-0.083,0.898-0.091c0,0,0.805-0.02,0.854-0.02c3.627,0,6.63,2.691,7.144,6.398
						c0.538,3.898-1.822,7.502-5.614,8.568c-0.895,0.255-1.378,0.394-1.88,0.456c-10.425,2.557-20.845,6.205-30.992,10.85
						c-2.521,1.196-3.849,1.825-4.642,2.17l0.01,0.021l-0.483,0.218c-19.006,9.443-34.733,21.464-45.49,34.77
						c-8.112,10.032-12.781,20.33-13.146,28.998c-0.066,1.537,0.006,3.05,0.215,4.505c0.874,6.047,4.33,11.449,9.996,15.617
						c8.521,6.262,21.805,9.711,37.398,9.71c6.298,0,12.938-0.551,19.737-1.638c0.169-0.033,0.41-0.081,0.582-0.115l-0.002-0.007
						c0,0,4.066-0.73,4.48-0.806c10.368-2.017,20.811-5.131,31.031-9.258c0.344-0.154,0.703-0.299,1.087-0.436
						c1.021-0.363,2.052-0.547,3.063-0.547c3.389,0,6.281,2.098,7.199,5.22c0.917,3.123-0.368,6.445-3.198,8.266
						c-0.927,0.598-1.688,1.087-2.481,1.412c-12.386,5.744-25.233,10.075-38.195,12.872c-0.114,0.025-0.229,0.046-0.346,0.064
						C939.158,146.59,931.584,147.204,924.425,147.204C924.426,147.204,924.426,147.204,924.425,147.204z"/>
					<path fill="#1D317A" d="M957.547,150.593c-3.619,0-6.62-2.685-7.137-6.382c-0.545-3.892,1.807-7.5,5.59-8.58
						c0.898-0.253,1.389-0.392,1.878-0.455c10.419-2.556,20.849-6.204,31.021-10.851c2.806-1.332,4.014-1.905,4.614-2.176
						l-0.004-0.01l0.487-0.221c19.003-9.44,34.739-21.463,45.515-34.776c8.105-10.029,12.772-20.328,13.142-28.998
						c0.063-1.549-0.01-3.068-0.214-4.51c-0.875-6.042-4.334-11.443-9.998-15.607c-8.522-6.267-21.806-9.718-37.397-9.718
						c-6.317,0-12.986,0.556-19.817,1.651c-0.149,0.029-0.34,0.064-0.503,0.095l0.003,0.015c-2.482,0.447-3.744,0.674-4.451,0.79
						l0.002,0.009c-10.403,2.022-20.871,5.146-31.117,9.288c-0.326,0.146-0.671,0.284-1.035,0.413
						c-1.014,0.363-2.049,0.549-3.063,0.549c-3.381,0-6.271-2.092-7.189-5.206c-0.924-3.117,0.352-6.44,3.17-8.27
						c0.896-0.578,1.66-1.067,2.459-1.398c12.41-5.759,25.277-10.097,38.245-12.896c0.114-0.024,0.229-0.045,0.344-0.063
						c7.782-1.21,15.364-1.823,22.533-1.823c3.929,0,7.792,0.185,11.49,0.55c15.027,0.488,28.162,4.097,37.98,10.442
						c10.359,6.679,16.689,16.032,18.307,27.047c1.574,10.736-1.462,22.824-8.784,34.953c-7.101,11.737-18.027,23.15-31.613,33.015
						c-9.575,7.712-20.469,14.658-32.381,20.647c-0.1,0.05-0.199,0.097-0.302,0.141c-13.188,5.741-26.651,9.853-40.019,12.221
						c-0.286,0.051-0.575,0.081-0.866,0.089C958.43,150.569,957.607,150.593,957.547,150.593z"/>
					<path fill="#1D317A" d="M976.465,163.074c-12.396,0.155-13.123-13.843-15.604-22.802c-3.215,10.059-4.857,18.175-16.895,19.893
						c-7.879,1.125-18.925,5.452-25.13-1.604c-7.118-8.094-7.698-25.817-10.166-35.94c-3.274-13.445-6.611-26.878-10.282-40.222
						c-3.772-13.725-23.235-53.672,4.722-52.544c9.092,0.359,19.919-4.247,28.438-2.453c12.026,2.531,10.314,16.197,11.563,25.537
						c2.455-13.646,5.104-19.036,19.298-19.699c5.77-0.676,12.802-3.447,18.322-0.614c7.934,4.069,6.872,13.519,7.581,20.99
						c1.769-8.583,1.128-22.005,11.606-24.996c5.577-1.591,10.563,1.434,15.894,2.426c4.562,0.849,9.171-0.13,13.664,0.699
						c16.443,3.033,8.756,19.725,4.751,29.548c-4.683,11.489-9.27,23.117-13.049,34.939c-4.556,14.252-9.042,28.453-13.033,42.876
						c-1.801,6.509-2.485,15.456-9.039,19.076C993.164,161.47,983.19,163.074,976.465,163.074
						C976.465,163.074,978.62,163.074,976.465,163.074z"/>
				</g>
				<g>
					<path fill="#4FB2ED" d="M970.762,12.09c-9.394,1.671-22.717,4.875-38.66,11.817c-11.604,5.828-22.169,12.575-31.43,20.053
						c-12.99,9.41-23.408,20.243-30.13,31.354c-6.597,10.912-9.353,21.634-7.981,30.986c1.357,9.243,6.761,17.153,15.619,22.875
						c8.962,5.781,21.104,9.063,35.124,9.484c10.074,1.021,21.081,0.602,32.709-1.208c12.635-2.726,25.141-6.954,37.202-12.572
						c0,0,0.004,0.07,1.497-0.893c1.495-0.961,0.612-3.1-1.804-2.239c-2.419,0.861-0.563,0.229-0.563,0.229
						c-10.674,4.329-21.591,7.597-32.46,9.708c0.006,0-4.53,0.815-4.53,0.815c-0.017,0.002-0.599,0.125-0.599,0.125
						c-25.694,4.124-48.213,0.792-61.737-9.148c-6.991-5.145-11.271-11.916-12.381-19.597c-0.261-1.811-0.354-3.686-0.271-5.61
						c0.42-10.003,5.426-21.33,14.477-32.519c11.318-14,27.779-26.595,47.595-36.423l0.588-0.265
						c0.014-0.002,4.596-2.174,4.596-2.174c10.904-4.992,22.124-8.873,33.35-11.533c0,0-1.521,0.456,0.396-0.093
						c1.92-0.54,1.553-3.229,0.063-3.19L970.762,12.09z"/>
					<path fill="#4FB2ED" d="M958.249,142.572c9.394-1.665,22.722-4.873,38.669-11.814c11.599-5.832,22.161-12.574,31.43-20.054
						c12.99-9.411,23.404-20.237,30.124-31.349c6.595-10.917,9.356-21.634,7.983-30.982c-1.355-9.251-6.757-17.161-15.623-22.877
						c-8.956-5.786-21.101-9.064-35.12-9.491c-10.077-1.015-21.089-0.595-32.709,1.211c-12.63,2.725-25.14,6.957-37.202,12.574
						c0,0-0.004-0.076-1.5,0.887c-1.493,0.969-0.606,3.105,1.81,2.241c2.417-0.861,0.559-0.226,0.559-0.226
						c10.67-4.33,21.592-7.599,32.461-9.712c-0.004,0.003,4.533-0.814,4.533-0.814c0.013-0.001,0.592-0.126,0.592-0.126
						c25.705-4.127,48.215-0.793,61.74,9.153c6.991,5.139,11.271,11.916,12.384,19.592c0.26,1.817,0.35,3.686,0.271,5.612
						c-0.424,10.001-5.431,21.333-14.471,32.52c-11.332,13.999-27.789,26.592-47.604,36.422l-0.583,0.265
						c-0.016,0.004-4.601,2.179-4.601,2.179c-10.901,4.982-22.12,8.864-33.345,11.525c0,0,1.521-0.448-0.398,0.093
						c-1.919,0.547-1.553,3.233-0.063,3.191L958.249,142.572z"/>
					<path fill="#4FB2ED" d="M1015.74,91.537c5.313-15.55,11.222-30.827,17.715-45.937c2.532-5.873-1.507-10.527-7.614-10.081
						c-2.188,0.247-4.786,0.104-6.975-0.049c-2.982-0.204-5.616-0.736-8.442-1.569c-3.563-1.12-7.028-2.936-10.641-0.729
						c-3.072,1.949-3.072,5.575-3.611,8.754c-0.635,4.014-1.365,7.976-2.201,11.936c-1.605,7.931-3.509,15.761-5.803,23.491
						c-0.391,1.267-0.785,2.54-1.172,3.816c-2.781-12.187-4.542-24.518-5.274-36.998c-0.189-2.836-0.14-5.323-2.438-7.334
						c-1.755-1.517-4.105-1.96-6.295-1.318c-2.194,0.635-4.354,1.273-6.639,1.511c-0.778-0.338-2.688,0.149-3.563,0.198
						c-0.975,0.049-1.95,0.049-2.93,0.098c-3.762,0.1-7.859,0.289-9.126,4.65c-0.835,3.03-1.022,6.317-1.61,9.39
						c-0.535,3.132-1.171,6.266-1.853,9.398c-1.47,6.65-3.228,13.165-5.223,19.663c-2.44-11.348-4.206-22.842-5.613-34.388
						c-0.301-2.744-0.393-5.58-0.592-8.367c-0.391-5.044-4.827-7.392-9.418-6.316c-3.27,0.732-6.59,1.712-9.896,2.254
						c-3.961,0.583-8.019,0.384-12.018,0.291c-3.903-0.048-8.051-0.882-10.444,3.129c-1.901,3.282,0,7.096,0.976,10.374
						c1.656,5.385,3.322,10.769,4.834,16.147c3.024,10.522,5.953,21.044,8.638,31.61c3.077,12.086,6.055,24.17,8.936,36.257
						c1.326,5.422,2.438,10.916,3.659,16.345c0.832,3.869,3.173,7.486,7.761,6.703c2.734-0.544,5.416-1.033,8.15-1.464
						c3.516-0.64,9.471-0.64,12.395-2.747c3.367-2.395,4.104-8.715,5.277-12.383c2.191-6.892,4.479-13.752,6.584-20.638
						c1.758,6.157,3.463,12.383,5.116,18.539c0.691,2.45,1.326,4.889,1.913,7.335c0.774,2.843,1.12,6.661,2.73,9.16
						c2.685,4.154,7.315,2.683,11.275,1.901c2.728-0.535,5.466-1.075,8.193-1.565c3.659-0.688,7.516-1.266,8.69-5.53
						c0.683-2.492,1.368-4.984,2.05-7.537c1.993-7.188,3.949-14.385,6.045-21.573L1015.74,91.537"/>
				</g>
				<g>
					
						<linearGradient id="SVGID_29_" gradientUnits="userSpaceOnUse" x1="963.8525" y1="1230" x2="963.8525" y2="1331.0111" gradientTransform="matrix(1 0 0 -1 0 1370)">
						<stop  offset="0" style="stop-color:#384EA3"/>
						<stop  offset="1" style="stop-color:#1D317A"/>
					</linearGradient>
					<path fill="url(#SVGID_29_)" d="M994.03,141.467c-5.464,0.956-10.88,2.146-16.302,3.314c-1.523-6.216-3.25-12.376-5.041-18.521
						c-3.464-11.884-6.935-23.783-10.65-35.589c-1.838,11.213-5.826,22.172-9.135,33.011c-1.813,5.94-3.638,11.876-5.542,17.786
						c-5.427,0.804-10.869,1.932-16.241,3.029c-2.379,0.486-2.114-2.901-2.604-4.922c-0.759-3.128-1.52-6.255-2.28-9.382
						c-1.513-6.191-3.066-12.371-4.688-18.536c-3.412-12.994-6.914-25.968-10.652-38.872c-3.264-11.267-6.521-22.562-10.34-33.655
						c0.785-1.173,10.72-0.097,12.489-0.174c5.543-0.242,10.96-1.835,16.323-3.14c1.578,0.936,1.544,10.427,1.85,12.677
						c0.795,5.85,1.604,11.69,2.717,17.49c2.188,11.407,4.787,22.723,7.744,33.955c3.197-3.417,4.769-11.548,6.263-16.285
						c2.131-6.751,3.89-13.612,5.36-20.535c1.502-7.067,2.709-14.199,3.731-21.35c6.093-0.243,12.267-0.396,18.06-2.503
						c1.168,20.213,4.861,40.239,11.499,59.387c4.063-5.654,5.908-15.273,7.856-22.133c2.436-8.574,4.401-17.288,5.976-26.06
						c0.74-4.137,1.405-8.289,1.954-12.456c0.472-3.578,2.317-1.663,5.113-0.835c6.099,1.81,13.181,2.674,19.548,1.691
						c1.208,1.074-7.575,19.706-8.545,22.274c-3.311,8.757-6.4,17.596-9.29,26.499C1003.445,105.373,998.453,123.35,994.03,141.467
						C991.189,141.964,996.33,132.043,994.03,141.467z"/>
				</g>
			</g>
		</g>
	</g>
</g>
</svg>
